<?xml version="1.0" encoding="UTF-8" standalone="no"?>
<svg
   xmlns:dc="http://purl.org/dc/elements/1.1/"
   xmlns:cc="http://creativecommons.org/ns#"
   xmlns:rdf="http://www.w3.org/1999/02/22-rdf-syntax-ns#"
   xmlns:svg="http://www.w3.org/2000/svg"
   xmlns="http://www.w3.org/2000/svg"
   xmlns:sodipodi="http://sodipodi.sourceforge.net/DTD/sodipodi-0.dtd"
   xmlns:inkscape="http://www.inkscape.org/namespaces/inkscape"
   sodipodi:docname="Fancy Spirits Logo 2021.svg"
   inkscape:version="1.0 (4035a4fb49, 2020-05-01)"
   id="svg8"
   version="1.1"
   viewBox="0 0 210 297"
   height="297mm"
   width="210mm">
  <defs
     id="defs2" />
  <sodipodi:namedview
     inkscape:window-maximized="1"
     inkscape:window-y="-8"
     inkscape:window-x="-8"
     inkscape:window-height="1017"
     inkscape:window-width="1920"
     showgrid="false"
     inkscape:document-rotation="0"
     inkscape:current-layer="layer1"
     inkscape:document-units="mm"
     inkscape:cy="483.90314"
     inkscape:cx="266.76972"
     inkscape:zoom="0.70710678"
     inkscape:pageshadow="2"
     inkscape:pageopacity="0.0"
     borderopacity="1.0"
     bordercolor="#666666"
     pagecolor="#ffffff"
     id="base" />
  <metadata
     id="metadata5">
    <rdf:RDF>
      <cc:Work
         rdf:about="">
        <dc:format>image/svg+xml</dc:format>
        <dc:type
           rdf:resource="http://purl.org/dc/dcmitype/StillImage" />
        <dc:title></dc:title>
      </cc:Work>
    </rdf:RDF>
  </metadata>
  <g
     id="layer1"
     inkscape:groupmode="layer"
     inkscape:label="Ebene 1">
    <path
       style="fill:#000000;fill-opacity:1;stroke-width:0.084667"
       d="m 162.07226,163.08688 c -2.19521,-0.26489 -3.69603,-0.6911 -5.40635,-1.53534 -2.0122,-0.99321 -3.76715,-2.40875 -5.32816,-4.2977 -0.8335,-1.00851 -2.18929,-3.27637 -2.46738,-4.12708 -0.0653,-0.19978 -0.24772,-0.43473 -0.49305,-0.63507 -1.07662,-0.87888 -2.0596,-2.57404 -2.30567,-3.97622 -0.25702,-1.46465 -0.16508,-2.85951 0.26949,-4.08863 0.13994,-0.39581 0.27211,-0.81497 0.2937,-0.93131 0.0252,-0.1356 -0.11794,-0.57687 -0.39811,-1.22776 -1.3994,-3.25078 -2.55048,-7.2986 -3.21416,-11.30298 -0.0579,-0.34933 -0.1366,-0.76836 -0.17491,-0.93139 -0.0383,-0.16295 -0.12972,-0.84877 -0.20311,-1.52395 -0.0734,-0.67531 -0.1693,-1.47536 -0.21311,-1.77804 -0.0438,-0.30271 -0.10184,-0.91231 -0.12898,-1.35471 -0.0271,-0.44235 -0.0859,-1.29956 -0.13055,-1.90497 -0.0846,-1.14656 -0.10804,-5.49105 -0.0395,-7.32369 0.14507,-3.88001 0.60428,-8.05784 1.3215,-12.02274 0.34858,-1.92697 0.83079,-4.153396 0.93522,-4.318008 0.0634,-0.100057 0.0722,-0.09096 0.041,0.04231 -0.12509,0.535328 -0.15938,1.745128 -0.144,5.080048 0.009,2.04893 0.0289,3.82054 0.0432,3.937 0.0143,0.11639 0.0321,0.38306 0.0395,0.59264 0.0119,0.33484 0.0271,0.36318 0.12528,0.23376 0.12625,-0.16626 0.11966,0.11712 -0.034,1.4596 -0.23636,2.06555 -0.42127,7.57743 -0.34792,10.37173 0.0468,1.78209 0.52217,7.20846 0.64958,7.41455 0.0197,0.0322 0.0936,0.45318 0.16415,0.93614 0.0705,0.4829 0.22454,1.37331 0.34221,1.97871 0.11766,0.60527 0.24986,1.29115 0.29378,1.52394 0.0439,0.23281 0.17631,0.76626 0.29421,1.18535 0.11789,0.41911 0.31283,1.12401 0.43318,1.56638 0.34388,1.2639 1.20868,3.77138 1.61355,4.67841 0.2028,0.45428 0.36873,0.84126 0.36873,0.85995 0,0.078 1.11132,2.402 1.42434,2.97859 0.55276,1.01814 1.69874,2.81017 2.45222,3.83472 1.74888,2.37798 3.16697,3.61562 5.304,4.62929 1.70501,0.80864 3.08734,1.12534 5.22302,1.1964 1.61057,0.0537 2.6802,-0.0362 3.84208,-0.32293 0.93305,-0.23023 1.8466,-0.51031 1.9431,-0.59579 0.0442,-0.0394 0.15313,-0.0716 0.24198,-0.0716 0.47881,0 2.71292,-1.30905 4.11397,-2.41044 0.80559,-0.63341 1.53262,-1.32503 1.53262,-1.45803 0,-0.065 -0.19269,-0.31604 -0.42821,-0.55865 -0.60673,-0.62516 -1.34096,-1.75194 -1.72193,-2.64255 -0.41598,-0.97248 -0.44915,-1.05707 -0.5149,-1.31234 -0.03,-0.11644 -0.14348,-0.55755 -0.25224,-0.98026 -0.60539,-2.35273 -0.39347,-5.84647 0.52085,-8.58714 0.28631,-0.85816 1.15648,-2.65794 1.45328,-3.0057 0.0795,-0.0927 0.285,-0.38006 0.45671,-0.63762 0.44032,-0.66053 1.41132,-1.69245 2.03309,-2.16067 1.00796,-0.75901 2.67658,-1.42612 3.74502,-1.49715 l 0.33866,-0.0231 0.0529,-2.32833 c 0.0597,-2.62437 0.19224,-4.8713 0.37975,-6.43462 0.0698,-0.58212 0.1597,-1.34708 0.19974,-1.69987 0.0401,-0.35277 0.11113,-0.79094 0.15795,-0.97366 0.0468,-0.18273 0.11117,-0.54175 0.14299,-0.79788 0.0964,-0.77546 0.69814,-3.50745 0.97531,-4.42754 0.14317,-0.4753 0.35591,-1.18802 0.47276,-1.58383 0.11685,-0.39581 0.24537,-0.79585 0.28562,-0.88896 0.0425,-0.0982 0.0756,1.57371 0.0789,3.99145 0.005,3.3466 -0.0187,4.28268 -0.11914,4.78365 -0.31403,1.56644 -0.54408,5.15463 -0.52571,8.19935 l 0.0156,2.58108 0.254,0.1202 c 0.3774,0.1787 1.13209,0.70458 1.58133,1.10196 1.1623,1.02805 2.38951,3.30595 2.76397,5.13041 0.0478,0.2328 0.13739,0.67097 0.19913,0.97366 0.17892,0.87728 0.14877,4.07064 -0.048,5.08006 -0.23485,1.20478 -0.67669,2.74437 -1.02605,3.57514 -0.32466,0.77207 -1.22663,2.33022 -1.73475,2.99681 -0.56965,0.74722 -1.48748,1.61535 -2.20581,2.08614 l -0.72414,0.47457 -0.28208,0.74654 c -0.79224,2.09645 -2.29547,4.51429 -3.89705,6.26808 -0.88099,0.96475 -2.41742,2.34332 -2.99929,2.6911 -0.15579,0.0927 -0.54548,0.34293 -0.86595,0.55514 -1.23034,0.81466 -3.07978,1.6992 -4.16954,1.99418 -2.44302,0.66144 -3.30201,0.80252 -5.09148,0.83623 -0.81491,0.0158 -1.61501,0.0121 -1.778,-0.008 z m 4.40267,-2.48588 c 0.48895,-0.10293 1.33639,-0.33527 1.88321,-0.51632 1.08535,-0.35925 3.39137,-1.44186 3.89181,-1.82714 0.1727,-0.13289 0.45255,-0.33693 0.62187,-0.45338 1.07069,-0.7361 2.74885,-2.37909 3.5823,-3.50703 0.57028,-0.77185 1.66291,-2.51046 1.85562,-2.95274 0.20962,-0.48114 0.15375,-0.56751 -0.36693,-0.56751 -0.25857,0 -0.73896,-0.0614 -1.06752,-0.13587 l -0.59741,-0.13591 -0.47764,0.46945 c -1.20174,1.18124 -2.28662,2.07776 -3.37827,2.79168 -1.37184,0.89709 -4.23937,2.11148 -5.43904,2.30333 -0.20955,0.0337 -0.45011,0.0969 -0.53457,0.14163 -0.41014,0.21559 -4.03835,0.31662 -5.38145,0.14988 -2.17955,-0.27063 -4.59283,-1.13685 -6.29938,-2.26117 l -0.58224,-0.38355 -0.69201,0.0964 c -0.38061,0.0533 -0.89204,0.0964 -1.13652,0.0963 -0.53913,0 -0.56325,0.0913 -0.17507,0.66199 1.41055,2.07455 3.15309,3.63603 5.34358,4.78845 1.30972,0.68905 3.14765,1.23597 4.71633,1.40342 1.20317,0.1285 3.21915,0.0512 4.23333,-0.16246 z m -14.732,-9.07089 c 0,-0.0515 -0.17103,-0.28361 -0.38006,-0.51612 -0.6785,-0.75465 -2.43662,-3.34323 -2.92126,-4.30116 -0.20055,-0.39638 -0.32627,-0.52607 -0.44114,-0.45512 -0.13011,0.0803 -0.0659,1.15152 0.11251,1.87619 0.31024,1.2602 0.89118,2.13124 1.84395,2.76457 0.85544,0.56874 1.786,0.89784 1.786,0.63164 z m 27.77067,-3.05355 c 2.11697,-0.39088 4.49452,-3.02974 5.44203,-6.04022 0.43806,-1.39186 0.59285,-2.42602 0.59546,-3.97852 0.002,-1.44121 -0.0433,-1.81487 -0.38286,-3.13273 -0.20808,-0.80744 -0.76175,-2.03036 -1.23131,-2.71968 -0.95034,-1.39519 -2.73834,-2.40261 -4.26398,-2.40261 -0.85967,0 -2.01476,0.42442 -2.99424,1.10027 -0.6047,0.41728 -1.66589,1.54803 -2.14572,2.28639 -2.14034,3.29334 -2.58581,7.66952 -1.13756,11.17517 0.41164,0.99647 0.78008,1.54085 1.57892,2.33316 0.94202,0.93438 1.75716,1.3412 3.01526,1.50506 0.2776,0.0362 0.9428,-0.0194 1.524,-0.12629 z m -1.73567,-2.30451 c -0.98479,-0.23981 -1.88593,-0.94231 -2.47859,-1.93229 -0.27789,-0.46411 -0.67203,-1.5177 -0.86442,-2.31065 -0.19985,-0.82369 -0.20525,-2.11397 -0.0138,-3.30202 0.54018,-3.35232 2.47133,-5.68365 4.98347,-6.01598 0.53863,-0.0716 1.36797,0.14731 1.99,0.52445 0.88938,0.53908 1.59694,1.54207 2.08212,2.95157 0.31173,0.90556 0.37781,1.4804 0.33281,2.89578 -0.0348,1.0956 -0.0838,1.49071 -0.27089,2.18428 -0.72979,2.70554 -2.4485,4.6701 -4.40041,5.02974 -0.60909,0.11223 -0.81236,0.10847 -1.36028,-0.0253 z m 1.94733,-2.34817 c 0.48429,-0.18234 1.40177,-0.9501 1.38733,-1.16097 -0.005,-0.0776 -0.35774,-0.46492 -0.78316,-0.86079 l -0.7735,-0.71964 -0.0473,0.80433 c -0.026,0.44238 -0.0546,0.72266 -0.0635,0.62275 -0.0329,-0.3691 -0.36797,-1.30982 -0.45604,-1.28044 -0.13369,0.0445 -1.22848,2.57358 -1.14865,2.6534 0.0946,0.0942 0.80915,0.18731 1.12282,0.14573 0.18627,-0.0252 0.52917,-0.11675 0.762,-0.20437 z m -2.04389,-0.22261 c 0.023,-0.0813 0.0651,-0.31952 0.0935,-0.52911 0.0516,-0.38047 0.0861,-0.54493 0.34453,-1.64021 0.0772,-0.32744 0.10523,-0.61396 0.064,-0.65513 -0.0412,-0.0414 -0.21415,0.002 -0.39548,0.0993 -0.48264,0.25874 -0.52907,0.1637 -0.13744,-0.28127 0.19297,-0.21915 0.32839,-0.43492 0.30092,-0.47941 -0.0534,-0.0859 -1.83669,-0.68405 -2.04111,-0.68405 -0.0961,0 -0.12144,0.13965 -0.11907,0.65617 0.006,1.26484 0.45637,2.4388 1.23483,3.2173 0.47724,0.47736 0.58977,0.52823 0.65526,0.29631 z m 4.08139,-1.99381 c 0.44547,-0.93804 0.64778,-2.11221 0.54537,-3.16527 -0.0445,-0.45709 -0.0818,-0.87875 -0.083,-0.93692 -0.001,-0.0585 -0.0465,-0.1058 -0.10067,-0.1058 -0.13035,0 -1.93351,1.86117 -1.93351,1.99567 0,0.0577 0.27622,0.19338 0.61383,0.30196 l 0.61383,0.19741 -0.59266,0.0435 c -0.45097,0.0334 -0.59267,0.0738 -0.59267,0.17061 0,0.12218 1.13269,2.11661 1.20207,2.11661 0.0187,0 0.16602,-0.27804 0.32743,-0.61797 z m -4.51,-2.5924 c 0.40965,-0.0396 0.7716,-0.0979 0.80433,-0.13114 0.0327,-0.0331 -0.0822,-0.32452 -0.2554,-0.64802 l -0.3149,-0.58817 0.4212,0.35517 c 0.23166,0.19542 0.43741,0.33896 0.45721,0.3192 0.0497,-0.0497 -0.0981,-3.12882 -0.15287,-3.18347 -0.0457,-0.0456 -0.7764,0.51281 -0.96416,0.73685 -0.66412,0.79245 -1.24813,2.02203 -1.34274,2.82712 l -0.0565,0.48071 0.3295,-0.0485 c 0.18122,-0.0272 0.66467,-0.0807 1.07433,-0.11982 z m 3.56123,-1.33682 c 1.36079,-0.81909 1.28115,-0.70521 0.92519,-1.32295 -0.41811,-0.72562 -0.74595,-1.05349 -1.33659,-1.33675 -0.55032,-0.26397 -1.15437,-0.31952 -1.63836,-0.15082 -0.33974,0.11841 -0.33887,0.14454 0.0589,1.76967 0.38268,1.5633 0.46415,1.63965 0.81627,0.76496 0.13207,-0.32806 0.25371,-0.58295 0.2703,-0.56633 0.0166,0.017 -0.0276,0.3051 -0.0983,0.64102 -0.15354,0.72988 -0.1553,0.76909 -0.0346,0.76909 0.0516,0 0.51837,-0.25559 1.03717,-0.56789 z m 1.72602,-22.99075 c -0.0154,-0.43072 -0.0279,-0.0785 -0.0279,0.78321 0,0.86147 0.0126,1.21393 0.0279,0.78314 0.0154,-0.43069 0.0154,-1.13552 0,-1.56635 z m 0,-3.89465 c -0.0146,-0.57045 -0.0266,-0.10372 -0.0266,1.03719 0,1.14089 0.012,1.60756 0.0266,1.03717 0.0146,-0.5705 0.0146,-1.50394 0,-2.07436 z M 45.624972,152.59717 c -0.0268,-0.0701 -0.12154,-0.12693 -0.21052,-0.12693 -0.0908,0 -0.30499,-0.17657 -0.48804,-0.40219 -0.17944,-0.22126 -0.35548,-0.4149 -0.3912,-0.43042 -0.0357,-0.0159 -0.065,-5.20668 -0.065,-11.5359 v -11.5077 h -5.67267 c -3.11997,0 -5.67267,-0.0191 -5.67267,-0.0415 0,-0.0231 0.2531,-0.47989 0.56244,-1.01601 l 0.56245,-0.97447 h 5.11022 5.11023 V 112.02856 97.494966 l 0.21657,-0.28394 c 0.3398,-0.44551 0.81403,-0.646461 1.42177,-0.602507 0.48783,0.0353 0.52535,0.05501 0.91682,0.480695 l 0.40817,0.44391 v 2.280112 c 0,1.372274 0.0318,2.280064 0.0799,2.280064 0.0439,0 0.13938,-0.0852 0.21211,-0.19044 0.0727,-0.10481 0.32495,-0.40011 0.56048,-0.65618 0.23553,-0.25613 0.82598,-0.92288 1.31211,-1.481691 0.48614,-0.558799 1.08381,-1.227828 1.32816,-1.48673 0.24435,-0.258901 0.6443,-0.683136 0.88877,-0.942753 0.24448,-0.259615 0.4445,-0.507699 0.4445,-0.551301 0,-0.04358 0.38065,-0.476613 0.84587,-0.962243 0.46523,-0.485642 0.84623,-0.923357 0.84667,-0.972674 4.3e-4,-0.04934 0.21035,-0.270607 0.46646,-0.491712 0.25612,-0.221127 0.46567,-0.445485 0.46567,-0.498574 0,-0.05314 0.2667,-0.355942 0.59267,-0.672984 0.32596,-0.317039 0.59266,-0.613521 0.59266,-0.658841 0,-0.04526 0.20003,-0.286671 0.4445,-0.536337 0.24448,-0.249656 0.53071,-0.571377 0.63607,-0.714911 0.10646,-0.145037 0.30349,-0.285568 0.44353,-0.316324 0.13858,-0.03038 0.2737,-0.09048 0.30026,-0.133493 0.0266,-0.04298 0.34251,-0.0781 0.70209,-0.0781 h 0.65378 l 0.56889,0.478122 c 0.31289,0.262959 0.56888,0.51375 0.56888,0.557291 0,0.04348 0.58103,0.706473 1.29117,1.47316 0.71014,0.766709 1.39784,1.535101 1.52821,1.707552 0.13038,0.172448 0.38395,0.465954 0.56349,0.65222 0.56464,0.585779 2.23624,2.412822 2.50147,2.734061 0.1397,0.169197 0.39687,0.437324 0.5715,0.59581 0.17462,0.158504 0.3175,0.325664 0.3175,0.371464 0,0.04577 0.16822,0.26044 0.37384,0.476977 0.2056,0.216541 0.6806,0.736581 1.05555,1.155731 1.20341,1.34504 1.4828,1.65009 1.93611,2.11341 0.24447,0.2499 0.4445,0.49576 0.4445,0.5463 0,0.0507 0.0381,0.0915 0.0847,0.0915 0.0547,0 0.0835,0.93634 0.0814,2.64585 l -0.003,2.64589 -0.33081,0.22871 c -0.18194,0.12576 -0.3974,0.33534 -0.4788,0.46565 -0.0814,0.13033 -0.38464,0.48461 -0.67388,0.78731 -1.0403,1.08866 -1.55809,1.66669 -1.55809,1.73935 0,0.0409 -0.18097,0.25741 -0.40216,0.48168 -0.91206,0.92446 -3.40784,3.67203 -3.40784,3.75153 0,0.0329 -0.33337,0.41101 -0.74083,0.84045 -0.40746,0.42946 -1.08373,1.16464 -1.50283,1.63396 l -0.762,0.85334 -2.71252,0.007 -2.71251,0.007 -0.38821,-0.40219 c -0.21351,-0.22119 -0.42278,-0.46816 -0.46503,-0.54885 -0.078,-0.1489 -1.52819,-1.72347 -2.2382,-2.43004 -0.21365,-0.21262 -0.4047,-0.43591 -0.42455,-0.49614 -0.0198,-0.0605 -0.21846,-0.3078 -0.44135,-0.55028 -1.01045,-1.09914 -3.10596,-3.44224 -3.10596,-3.4729 0,-0.0192 -0.18097,-0.22503 -0.40216,-0.4584 -0.2212,-0.23344 -0.49079,-0.54369 -0.59911,-0.68949 -0.10832,-0.14578 -0.23214,-0.26505 -0.27517,-0.26505 -0.0473,0 -0.0782,3.17897 -0.0782,8.04332 v 8.04334 h 30.26842 30.268448 l -0.0213,-32.236914 -0.0213,-32.236969 -4.18846,-0.04231 -4.188465,-0.04231 -0.610394,-1.31233 c -0.33571,-0.721793 -0.61308,-1.358985 -0.61636,-1.416001 -0.003,-0.05698 0.10642,-0.161784 0.2438,-0.232841 0.21488,-0.111103 0.889634,-0.129164 4.826009,-0.129164 h 4.5762 v -5.461002 -5.461027 h -9.051399 -9.051449 l -0.33584,-0.402166 c -0.18472,-0.221195 -0.66349,-0.840321 -1.06394,-1.375838 -0.72466,-0.969084 -0.72724,-0.974322 -0.54689,-1.111711 0.44252,-0.33711 0.47295,-0.337671 16.846348,-0.31102 8.69246,0.01411 15.83313,0.05443 15.86818,0.08945 0.035,0.03505 -0.6236,0.749429 -1.46364,1.587509 l -1.52736,1.523778 h -3.27064 -3.27065 v 5.461025 5.461028 h 2.62467 c 1.44356,0 2.62466,0.02818 2.62466,0.0626 0,0.0345 -0.67588,0.739303 -1.50195,1.566333 l -1.50195,1.503695 h -1.12272 -1.12271 v 32.258103 32.258072 h 15.10916 15.10917 l 0.0475,0.27527 c 0.0802,0.46442 0.21068,1.4521 0.21245,1.60866 0.002,0.14057 -0.7794,0.1481 -15.22907,0.1481 h -15.23074 l -0.0314,0.62175 c -0.0264,0.52248 -0.0692,0.67121 -0.26815,0.93211 -0.53183,0.69723 -1.48527,0.86039 -2.21269,0.37855 -0.49401,-0.32726 -0.63894,-0.64013 -0.63894,-1.37933 v -0.55308 H 77.701512 47.432562 l 0.001,11.19729 c 6.7e-4,6.15839 9.4e-4,11.29863 5.9e-4,11.42264 -7.6e-4,0.28807 -0.79191,1.25616 -1.0266,1.25616 -0.0906,0 -0.18659,0.0574 -0.21339,0.12705 -0.0272,0.0714 -0.15305,0.12698 -0.28462,0.12698 -0.13157,0 -0.25744,-0.0564 -0.28462,-0.12698 z m 14.50862,-36.2937 c 0.72178,-0.79094 1.38853,-1.53307 1.48167,-1.64897 0.0931,-0.11602 0.35031,-0.40077 0.5715,-0.63275 0.22119,-0.23195 0.40216,-0.45532 0.40216,-0.49625 0,-0.0409 0.21908,-0.30052 0.48684,-0.5768 0.26776,-0.27626 0.73448,-0.77828 1.03716,-1.11582 0.30269,-0.33739 0.65451,-0.71945 0.78183,-0.84891 0.12731,-0.12946 0.36908,-0.40171 0.53725,-0.60491 0.16817,-0.2032 0.74028,-0.83299 1.27134,-1.3995 0.53108,-0.56652 0.96558,-1.06863 0.96558,-1.11571 0,-0.0471 0.0857,-0.1552 0.1905,-0.24025 0.10478,-0.085 0.42454,-0.42175 0.71058,-0.74806 l 0.52007,-0.59337 -0.92555,-1.01492 c -0.50906,-0.55822 -1.02883,-1.14146 -1.15507,-1.29611 -0.12624,-0.15465 -0.70578,-0.79666 -1.28786,-1.42665 -0.58208,-0.63009 -1.10077,-1.22357 -1.15265,-1.31887 -0.0519,-0.0951 -0.24876,-0.32957 -0.43752,-0.52064 -1.26537,-1.280722 -1.62716,-1.664486 -1.62716,-1.726024 0,-0.03844 -0.13751,-0.201075 -0.30557,-0.361555 -0.16806,-0.160487 -0.3925,-0.425132 -0.49877,-0.588112 -0.10626,-0.162988 -0.63392,-0.748778 -1.17257,-1.301743 -0.53865,-0.552983 -0.99048,-1.035265 -1.00406,-1.071755 -0.0425,-0.114041 -0.91983,-1.013191 -0.98865,-1.013191 -0.078,0 -0.5509,0.508075 -2.89462,3.109833 -0.97447,1.081758 -1.77176,1.988631 -1.77176,2.01529 0,0.02671 -0.5715,0.670607 -1.27,1.431057 -0.6985,0.76042 -1.27,1.41792 -1.27,1.46101 0,0.0434 -0.20955,0.25951 -0.46567,0.48055 -0.25612,0.22117 -0.46567,0.45864 -0.46567,0.52786 0,0.0696 -0.1905,0.30123 -0.42333,0.51573 -0.23283,0.21449 -0.42381,0.43189 -0.4244,0.48315 -5.9e-4,0.0514 -0.21014,0.2766 -0.46567,0.50071 -0.25553,0.2241 -0.4646,0.46028 -0.4646,0.52483 0,0.0649 -0.13394,0.21957 -0.29765,0.34444 -0.34401,0.26238 -0.42639,0.10825 0.67196,1.25715 0.35293,0.36914 0.64169,0.695 0.64169,0.72419 0,0.079 0.73593,0.9037 1.29117,1.44708 0.26776,0.26205 0.48725,0.51069 0.48775,0.55264 5.1e-4,0.0417 0.40056,0.49386 0.889,1.0043 0.48845,0.51046 0.88808,0.97235 0.88808,1.02641 0,0.0543 0.17145,0.25636 0.381,0.44953 0.20955,0.19308 0.381,0.37114 0.381,0.39551 0,0.0373 1.4518,1.67013 3.081,3.46578 0.21124,0.23294 0.64266,0.71573 0.95871,1.07304 0.55383,0.62608 0.57922,0.64347 0.70163,0.47922 0.0699,-0.0933 0.71755,-0.81748 1.43933,-1.60844 z m 91.986828,28.13888 c -0.65037,-0.30556 -1.13949,-1.1335 -1.13949,-1.92891 0,-0.52421 0.30539,-1.29688 0.66076,-1.67171 0.30153,-0.31805 0.94378,-0.63931 1.40407,-0.70241 0.80163,-0.10988 1.70907,0.47355 2.02923,1.30464 0.16493,0.42817 0.17569,1.20918 0.0226,1.63763 -0.15431,0.43176 -0.71144,1.07434 -1.11096,1.28123 -0.48699,0.25225 -1.41435,0.29175 -1.86617,0.0799 z m 7.13303,-2.51599 c -0.77273,-0.28366 -1.20916,-0.83679 -1.34412,-1.70366 -0.22334,-1.4346 0.83007,-2.73487 2.2156,-2.73487 1.15341,0 1.96576,0.86724 1.97715,2.11075 0.004,0.48281 -0.0373,0.65441 -0.27004,1.11204 -0.32095,0.63095 -0.70563,0.97922 -1.31367,1.1894 -0.51794,0.17902 -0.83118,0.18548 -1.26492,0.0269 z m -9.00991,-3.29699 c -0.31123,-0.13532 -0.37196,-0.2589 -0.91647,-1.8649 -0.21032,-0.62031 -0.44627,-1.54415 -0.54064,-2.11673 -0.0921,-0.55876 -0.24212,-1.45418 -0.33338,-1.98967 -0.33612,-1.97226 -0.47687,-4.92751 -0.3093,-6.49408 0.11494,-1.0746 0.25479,-1.42996 0.64493,-1.63873 0.23041,-0.12334 1.35168,-0.33181 2.06525,-0.38397 0.32596,-0.0242 0.82126,-0.0828 1.10066,-0.13225 0.98365,-0.1724 1.52158,-0.18381 1.80316,-0.0386 0.29477,0.15248 0.36907,0.34487 0.57274,1.48314 0.0701,0.3918 0.2352,1.02042 0.36689,1.39705 0.35325,1.01016 0.53325,1.51065 0.61167,1.70072 0.84113,2.0386 1.27966,3.07254 1.34664,3.17502 0.0456,0.0705 0.121,0.22228 0.16748,0.33866 0.0465,0.11648 0.12946,0.28792 0.18441,0.38104 0.12705,0.21529 0.65533,1.13174 0.78095,1.35467 0.0525,0.0927 0.23544,0.38566 0.40658,0.64999 0.35966,0.55553 0.46686,0.97453 0.30471,1.19072 -0.10273,0.13704 -1.47971,0.69253 -2.35423,0.94982 -0.40474,0.11905 -1.78272,0.70842 -2.29836,0.98303 -0.16978,0.0901 -0.66508,0.29486 -1.10066,0.45425 -0.43559,0.1595 -1.02935,0.3879 -1.31946,0.50752 -0.596,0.24592 -0.79558,0.26157 -1.18357,0.0925 z m 1.24539,-1.31606 c 0.4106,-0.1461 1.21354,-0.48506 1.83072,-0.77283 0.28512,-0.13299 0.55821,-0.24174 0.60688,-0.24174 0.0487,0 0.29164,-0.10288 0.53994,-0.22871 0.2483,-0.12581 0.94453,-0.40483 1.54718,-0.62017 0.60265,-0.21521 1.1072,-0.42669 1.12122,-0.46973 0.014,-0.0433 -0.14755,-0.34501 -0.35908,-0.67105 -0.44517,-0.686 -1.81553,-3.45062 -1.81553,-3.66281 0,-0.0624 -0.23855,-0.65187 -0.67578,-1.67122 -0.18664,-0.43505 -0.50593,-1.40739 -0.62559,-1.90498 -0.3285,-1.36619 -0.39196,-1.67897 -0.39196,-1.93155 0,-0.26911 -0.001,-0.26975 -0.4445,-0.26861 -0.55052,9.8e-4 -2.87159,0.37847 -3.1076,0.50477 -0.57404,0.30724 -0.66211,1.30552 -0.41098,4.65872 0.0855,1.14089 0.21229,2.3601 0.28187,2.70937 0.14887,0.74712 0.2842,1.50454 0.32825,1.83709 0.0641,0.48367 0.33251,1.51539 0.53423,2.05325 0.11442,0.30506 0.22932,0.62489 0.25531,0.71075 0.0516,0.17019 0.24233,0.16275 0.78542,-0.0307 z M 23.828692,133.67673 c -0.19083,-0.13824 -0.39213,-0.33818 -0.44733,-0.44447 -0.0552,-0.1063 -0.28578,-0.44551 -0.5124,-0.75381 -0.22662,-0.3084 -0.41204,-0.58372 -0.41204,-0.6119 0,-0.0282 -0.17145,-0.30677 -0.381,-0.61922 -0.20955,-0.31245 -0.381,-0.61689 -0.381,-0.67637 0,-0.0599 -0.1143,-0.23852 -0.254,-0.39764 -0.1397,-0.15906 -0.254,-0.31366 -0.254,-0.34343 0,-0.053 -0.42187,-0.72871 -0.5072,-0.8125 -0.0237,-0.0237 -0.1161,-0.17563 -0.20529,-0.33866 -0.0892,-0.16298 -0.30826,-0.47306 -0.48683,-0.68912 -0.17857,-0.21596 -0.32468,-0.42044 -0.32468,-0.45429 0,-0.0342 -0.12842,-0.23817 -0.28537,-0.45388 -0.15696,-0.21585 -0.35278,-0.52569 -0.43515,-0.68872 -0.0824,-0.16294 -0.17303,-0.31531 -0.20146,-0.33866 -0.0736,-0.0606 -0.22801,-0.31665 -0.48441,-0.80431 -0.12241,-0.23289 -0.4085,-0.67568 -0.63575,-0.98411 -0.22726,-0.30834 -0.41319,-0.59045 -0.41319,-0.62692 0,-0.0368 -0.0953,-0.1912 -0.21167,-0.34383 -0.11641,-0.15268 -0.21166,-0.29728 -0.21166,-0.32149 0,-0.0247 -0.18098,-0.29655 -0.40217,-0.60517 -0.22119,-0.30876 -0.44154,-0.62488 -0.48967,-0.70256 -0.0481,-0.0777 -0.26219,-0.40798 -0.47569,-0.73394 -0.21351,-0.32599 -0.47299,-0.76018 -0.57664,-0.96475 -0.10365,-0.20468 -0.37536,-0.62909 -0.60381,-0.94318 -0.22845,-0.31413 -0.41536,-0.59765 -0.41536,-0.63006 0,-0.0699 -0.47763,-0.7704 -0.70224,-1.03017 -0.0863,-0.0996 -0.22079,-0.29724 -0.29884,-0.4387 -0.078,-0.14151 -0.32837,-0.53608 -0.55626,-0.87692 -0.22789,-0.34078 -0.58285,-0.92434 -0.78881,-1.29694 -0.20596,-0.37255 -0.444279,-0.7535 -0.529599,-0.84661 -0.0853,-0.0927 -0.43058,-0.60742 -0.76726,-1.14273 -0.3366797,-0.53532 -0.6834297,-1.02332 -0.7705597,-1.08433 -0.0871,-0.0613 -0.1584304,-0.15829 -0.1584304,-0.21611 0,-0.0581 -0.20965,-0.42205 -0.4659,-0.80934 -0.25625,-0.3873 -0.58541,-0.92834 -0.73147,-1.20231 -0.14605,-0.27405 -0.29834,-0.4982 -0.33842,-0.4982 -0.0401,0 -0.0729,-0.0323 -0.0729,-0.0719 0,-0.0395 -0.2474299,-0.44878 -0.5498499,-0.91013 -0.30242,-0.46125 -0.55007,-0.88638 -0.55033,-0.94457 -3.4e-4,-0.0812 0.42505,-0.1058 1.8462499,-0.1058 h 1.8467501 l 0.18526,0.25059 c 0.10188,0.13774 0.18525,0.27365 0.18525,0.30191 0,0.0284 0.0908,0.17269 0.20184,0.32094 0.11101,0.14823 0.22629,0.35026 0.25616,0.44888 0.0299,0.0983 0.129549,0.24735 0.221499,0.33062 0.0919,0.0827 0.16717,0.1877 0.16717,0.2322 0,0.0444 0.40957,0.69156 0.91016,1.43798 0.5006,0.74629 0.94778,1.42802 0.99375,1.51462 0.046,0.0862 0.11264,0.15761 0.14816,0.15761 0.0355,0 0.0646,0.0526 0.0646,0.11657 0,0.0645 0.0536,0.16113 0.11921,0.21562 0.0656,0.0546 0.18091,0.22097 0.25634,0.3702 0.17249,0.34114 0.27556,0.50968 0.61929,1.01225 0.15134,0.22134 0.27516,0.43449 0.27516,0.4738 0,0.0396 0.0752,0.13941 0.16718,0.22262 0.0919,0.0828 0.19175,0.22873 0.2218,0.32342 0.0514,0.16206 1.09444,1.73876 1.52886,2.31117 0.10936,0.14413 0.19883,0.28946 0.19883,0.32315 0,0.0338 0.0924,0.18246 0.20529,0.33061 0.1129,0.14831 0.3252,0.49819 0.47177,0.77757 0.14657,0.27948 0.71142,1.16506 1.25522,1.96794 1.40674,2.07731 2.03587,3.05824 2.2286,3.47506 0.0923,0.19969 0.27444,0.48543 0.40474,0.63498 0.13029,0.14972 0.30477,0.40534 0.38771,0.56838 0.083,0.16303 0.32636,0.54153 0.54091,0.84124 0.21455,0.29972 0.46629,0.66676 0.55943,0.81555 0.33926,0.54217 0.84824,1.26491 0.91016,1.29246 0.0349,0.0159 0.0635,0.0674 0.0635,0.11424 0,0.13065 0.60639,1.08525 0.68937,1.08525 0.04,0 0.0726,-0.0715 0.0726,-0.15754 0,-0.0866 0.0954,-0.29815 0.21202,-0.46997 0.11662,-0.17184 0.34347,-0.55585 0.50412,-0.85341 0.41685,-0.77207 0.49952,-0.91621 0.60735,-1.05917 0.0527,-0.0701 0.12449,-0.22222 0.15954,-0.3386 0.035,-0.11647 0.17956,-0.38314 0.32114,-0.5927 0.45191,-0.66883 0.52956,-0.79654 0.72088,-1.18529 0.10313,-0.20958 0.2823,-0.53344 0.39816,-0.71969 0.11586,-0.18624 0.3063,-0.51013 0.42319,-0.7197 0.1169,-0.20958 0.34505,-0.6096 0.507,-0.88896 0.16195,-0.27948 0.38984,-0.69852 0.50641,-0.93138 0.21541,-0.43023 0.29569,-0.56789 0.58778,-1.00851 0.17752,-0.26766 0.42821,-0.71869 0.7337,-1.31983 0.10649,-0.2095 0.22283,-0.40132 0.25854,-0.42634 0.0357,-0.0252 0.14811,-0.23446 0.24978,-0.46561 0.10167,-0.23124 0.3127,-0.62115 0.46895,-0.86654 0.15626,-0.2454 0.28411,-0.46422 0.28411,-0.48624 0,-0.0225 0.17145,-0.31562 0.381,-0.6523 0.20955,-0.33682 0.381,-0.65771 0.381,-0.71326 0,-0.0557 0.0328,-0.11368 0.0729,-0.12923 0.0401,-0.0159 0.21773,-0.31387 0.39471,-0.66313 0.17698,-0.34926 0.37591,-0.69866 0.44207,-0.77642 0.13339,-0.15682 0.40393,-0.63369 0.76038,-1.34031 0.1292,-0.25607 0.25813,-0.48472 0.28652,-0.50795 0.0284,-0.0239 0.19648,-0.32808 0.37354,-0.67737 0.17706,-0.34921 0.37606,-0.69862 0.44223,-0.77638 0.13339,-0.15682 0.40393,-0.63374 0.76037,-1.3403 0.1292,-0.25614 0.25396,-0.48472 0.27724,-0.50801 0.0233,-0.0239 0.1143,-0.17572 0.20225,-0.3386 0.0879,-0.16303 0.28297,-0.48691 0.43338,-0.7197 0.1504,-0.23279 0.35964,-0.5948 0.46498,-0.80439 0.10533,-0.20952 0.25608,-0.47618 0.335,-0.59264 0.0789,-0.1164 0.19561,-0.34505 0.25931,-0.50795 0.0637,-0.16301 0.13731,-0.31543 0.16359,-0.33866 0.0652,-0.0579 0.51216,-0.89913 0.51216,-0.96403 0,-0.0291 -6.95447,-0.0521 -15.45438,-0.0521 -16.868889,0 -15.7103691,0.0351 -16.268419,-0.48886 -0.52865,-0.49613 -0.5954,-1.55171 -0.14425,-2.28112 0.13777,-0.22283 0.30294,-0.53843 0.36705,-0.70139 0.0641,-0.163 0.16922,-0.35847 0.23359,-0.4344 0.0644,-0.0761 0.1855499,-0.26644 0.2692999,-0.423348 0.32289,-0.604928 0.96754,-1.734279 1.10525,-1.936283 0.0794,-0.116414 0.19522,-0.345014 0.25745,-0.507996 0.0622,-0.162986 0.18027,-0.372532 0.2623004,-0.465672 0.082,-0.09308 0.30891,-0.474129 0.50416,-0.846664 0.19526,-0.372544 0.4934197,-0.905941 0.6625897,-1.185341 0.31931,-0.5274 0.6041,-1.032985 0.786869,-1.397007 0.0585,-0.116415 0.23173,-0.412431 0.38505,-0.657814 0.15333,-0.24538 0.27878,-0.475735 0.27878,-0.511896 0,-0.0362 0.17145,-0.343826 0.381,-0.683717 0.20955,-0.339882 0.381,-0.648173 0.381,-0.685109 0,-0.03692 0.12443,-0.252395 0.27651,-0.478807 0.15208,-0.226426 0.333,-0.525976 0.40203,-0.665672 0.069,-0.139702 0.14463,-0.273054 0.16799,-0.296331 0.0234,-0.02334 0.19128,-0.328087 0.37316,-0.677333 0.18188,-0.349251 0.42,-0.767684 0.52916,-0.929824 0.10917,-0.162167 0.19848,-0.335731 0.19848,-0.385731 0,-0.05002 0.0975,-0.222121 0.21659,-0.382506 0.11913,-0.160401 0.27907,-0.424971 0.35542,-0.587948 0.0764,-0.162992 0.16016,-0.315398 0.18622,-0.338676 0.0261,-0.0233 0.18027,-0.309034 0.34268,-0.634999 0.16241,-0.325974 0.36446,-0.673792 0.44901,-0.772948 0.16807,-0.197097 0.43546,-0.664204 0.79348,-1.386065 0.12702,-0.256119 0.25186,-0.484719 0.27741,-0.508004 0.0255,-0.0233 0.10238,-0.156625 0.17074,-0.296332 0.0684,-0.139695 0.22474,-0.406404 0.34753,-0.592671 0.31969,-0.484948 0.81326,-1.36335 1.0704,-1.905003 0.12158,-0.256126 0.24535,-0.484722 0.27504,-0.508002 0.0297,-0.0233 0.1197,-0.175686 0.20003,-0.338676 0.22274,-0.451887 0.45293,-0.844761 0.58683,-1.001552 0.11215,-0.131332 0.55826,-0.935101 1.13582,-2.046457 0.1331,-0.256108 0.37843,-0.675218 0.54518,-0.931335 0.26777,-0.411292 0.52131,-0.861845 1.20934,-2.149132 0.7211,-1.349143 0.89902,-1.491553 1.86348,-1.491553 0.74415,0 1.19858,0.178178 1.44516,0.566631 0.083,0.13074 0.24521,0.339205 0.36049,0.463284 0.11528,0.124065 0.29132,0.38098 0.39121,0.570885 0.19168,0.364492 1.19955,1.876762 1.58518,2.378557 0.12526,0.162981 0.40589,0.637023 0.62362,1.05342 0.21773,0.416416 0.57634,1.006969 0.79692,1.312341 0.22058,0.305389 0.70326,1.012452 1.07262,1.571258 0.36937,0.558795 0.802,1.187452 0.9614,1.397006 0.1594,0.209549 0.38084,0.585581 0.49208,0.835612 0.11124,0.25003 0.29598,0.577478 0.41052,0.727652 0.11455,0.150186 0.20827,0.300062 0.20827,0.333065 0,0.03305 0.20955,0.343374 0.46566,0.689701 0.25612,0.346314 0.46567,0.647946 0.46567,0.670302 0,0.06086 0.87412,1.350286 0.95441,1.407788 0.0382,0.0274 0.1344,0.168413 0.21371,0.313407 0.0793,0.145004 0.2617,0.429449 0.40531,0.632125 0.1436,0.202665 0.30351,0.490156 0.35535,0.638873 0.0518,0.148701 0.19152,0.3979 0.3104,0.553763 0.11888,0.155858 0.21615,0.311205 0.21615,0.345202 0,0.03404 0.20955,0.340252 0.46567,0.680546 0.25612,0.340304 0.46566,0.658139 0.46566,0.706303 0,0.04823 0.0322,0.100294 0.0715,0.115804 0.0393,0.0155 0.12505,0.127338 0.19049,0.248502 0.2296,0.425052 0.79853,1.290011 1.01924,1.549574 0.1226,0.144179 0.28195,0.40352 0.35411,0.576301 0.0721,0.172775 0.41962,0.744278 0.77214,1.27001 1.96931,2.93686 1.82583,2.688849 1.82583,3.156039 v 0.38215 l -1.67217,-0.0021 -1.67216,-0.0021 -0.23284,-0.329216 c -0.12806,-0.181081 -0.23283,-0.357641 -0.23283,-0.392369 0,-0.03473 -0.0953,-0.188034 -0.21167,-0.340662 -0.11641,-0.152633 -0.21166,-0.311023 -0.21166,-0.351991 0,-0.04097 -0.1143,-0.183971 -0.254,-0.317825 -0.1397,-0.133843 -0.254,-0.29337 -0.254,-0.354505 0,-0.06106 -0.0337,-0.111155 -0.0748,-0.111155 -0.0411,0 -0.0977,-0.06668 -0.12567,-0.148175 -0.028,-0.08152 -0.14675,-0.300569 -0.26393,-0.486828 -0.11719,-0.186278 -0.26554,-0.456033 -0.32968,-0.599484 -0.11104,-0.248316 -0.76325,-1.233193 -1.37667,-2.078878 -0.15653,-0.215794 -0.28459,-0.434863 -0.28459,-0.486838 0,-0.05201 -0.0355,-0.09452 -0.079,-0.09452 -0.0434,0 -0.10525,-0.0828 -0.13736,-0.183999 -0.0321,-0.101217 -0.0925,-0.225012 -0.1342,-0.275164 -0.44119,-0.530645 -0.92349,-1.277363 -1.17515,-1.81944 -0.0954,-0.205476 -0.30022,-0.548384 -0.45517,-0.762 -0.48973,-0.67517 -1.41985,-2.060888 -1.76671,-2.632081 -0.18381,-0.30269 -0.4204,-0.645596 -0.52577,-0.761999 -0.10536,-0.116428 -0.33859,-0.497426 -0.51829,-0.846676 -0.1797,-0.349252 -0.3562,-0.647705 -0.39222,-0.663232 -0.036,-0.0155 -0.0655,-0.06127 -0.0655,-0.10176 0,-0.04037 -0.18097,-0.326704 -0.40216,-0.636116 -0.22119,-0.309401 -0.44027,-0.623339 -0.48683,-0.697631 -0.0466,-0.07429 -0.26565,-0.394603 -0.48684,-0.711814 -0.22119,-0.317202 -0.40217,-0.599297 -0.40217,-0.626882 0,-0.02759 -0.21907,-0.375261 -0.48683,-0.772642 -0.42453,-0.630045 -0.68245,-1.055397 -1.07221,-1.768289 -0.19893,-0.363855 -0.85675,-1.216607 -0.93862,-1.216763 -0.0819,0 -0.20381,0.194189 -0.74285,1.183785 -0.52191,0.958154 -0.56949,1.054039 -0.56949,1.147782 0,0.05283 -0.0762,0.164932 -0.16933,0.249224 -0.0931,0.08434 -0.16933,0.198766 -0.16933,0.254414 0,0.05556 -0.1143,0.25895 -0.254,0.45182 -0.1397,0.192848 -0.254,0.377075 -0.254,0.409411 0,0.03233 -0.07,0.137431 -0.15563,0.23356 -0.0856,0.09616 -0.2077,0.308148 -0.27133,0.471133 -0.0636,0.162974 -0.22221,0.465721 -0.35237,0.672742 -0.13017,0.207031 -0.23667,0.409587 -0.23667,0.450145 0,0.04056 -0.0953,0.198625 -0.21167,0.351256 -0.11642,0.152633 -0.21167,0.304322 -0.21167,0.337082 0,0.03284 -0.12814,0.259891 -0.28476,0.504733 -0.15661,0.244832 -0.3999,0.671633 -0.54063,0.948435 -0.47044,0.925313 -0.69802,1.335936 -0.81498,1.470474 -0.0638,0.0734 -0.18659,0.285249 -0.27285,0.47074 -0.0863,0.185505 -0.28161,0.522709 -0.43413,0.749359 -0.15252,0.226639 -0.27731,0.457941 -0.27731,0.513992 0,0.05607 -0.12304,0.290344 -0.27341,0.520661 -0.15038,0.230309 -0.35461,0.571142 -0.45384,0.757411 -0.54856,1.029632 -0.73306,1.35184 -0.91301,1.594408 -0.10946,0.147552 -0.24286,0.399143 -0.29644,0.559106 -0.0536,0.159953 -0.15938,0.359289 -0.2351,0.442966 -0.13891,0.153497 -0.24146,0.333776 -0.80438,1.414023 -0.17004,0.326326 -0.40817,0.723109 -0.52916,0.881741 -0.121,0.158639 -0.22,0.314153 -0.22,0.345619 0,0.03151 -0.10091,0.217047 -0.22425,0.412438 -0.12334,0.195383 -0.45036,0.794703 -0.7267,1.331822 -0.27634,0.537118 -0.55199,1.033723 -0.61254,1.103573 -0.0606,0.0699 -0.19624,0.298451 -0.30152,0.507994 -0.10528,0.209555 -0.28117,0.498901 -0.39087,0.643009 -0.1097,0.14409 -0.19945,0.298563 -0.19945,0.343252 0,0.04464 -0.1065,0.250653 -0.23667,0.457677 -0.13016,0.207027 -0.28945,0.509759 -0.35397,0.672748 -0.0645,0.16298 -0.26282,0.502571 -0.44067,0.754623 -0.17785,0.252059 -0.323349,0.522399 -0.323349,0.600749 0,0.0786 -0.0762,0.21135 -0.16934,0.29566 -0.0931,0.0844 -0.16933,0.1854 -0.16933,0.22479 0,0.0395 6.934199,0.0713 15.409329,0.0713 h 15.40933 v 2.3214 c 0,2.13841 -0.0134,2.35262 -0.17049,2.71906 -0.0938,0.21876 -0.23952,0.49813 -0.32388,0.62082 -0.0844,0.12274 -0.20422,0.35647 -0.26635,0.51949 -0.0621,0.16289 -0.20212,0.3936 -0.31111,0.51255 -0.10899,0.11896 -0.19816,0.25803 -0.19816,0.30904 0,0.0511 -0.13766,0.29654 -0.3059,0.54568 -0.16825,0.24913 -0.39671,0.64356 -0.50771,0.87637 -0.28161,0.59068 -0.63416,1.22176 -0.8588,1.5371 -0.10464,0.14684 -0.19026,0.30492 -0.19026,0.35124 0,0.0463 -0.13766,0.28816 -0.3059,0.5373 -0.16825,0.24918 -0.39629,0.64358 -0.50676,0.87638 -0.11047,0.23279 -0.33445,0.65194 -0.49772,0.9313 -0.16327,0.27936 -0.35489,0.6223 -0.42583,0.76202 -0.14453,0.28459 -0.21872,0.40566 -0.61451,1.00261 -0.15201,0.22929 -0.30092,0.51662 -0.33092,0.63851 -0.03,0.1218 -0.14375,0.33951 -0.25279,0.48354 -0.10903,0.14406 -0.19824,0.29061 -0.19824,0.32554 0,0.0351 -0.0857,0.18282 -0.1905,0.32835 -0.10477,0.14561 -0.28575,0.45729 -0.40217,0.69255 -0.11641,0.23532 -0.3193,0.5984 -0.45086,0.80678 -0.4367,0.69164 -0.83255,1.38507 -1.30382,2.28379 -0.25638,0.48896 -0.5125,0.94618 -0.56915,1.01601 -0.14637,0.1805 -1.37234,2.36677 -1.52253,2.71514 -0.0689,0.15977 -0.24114,0.462 -0.38276,0.67159 -0.14162,0.2095 -0.25765,0.41609 -0.25785,0.45895 -1.7e-4,0.0431 -0.0558,0.13923 -0.12347,0.21412 -0.133,0.14686 -0.67066,1.09171 -1.08655,1.90923 -0.14213,0.27936 -0.32303,0.58423 -0.40201,0.67735 -0.079,0.0927 -0.44004,0.72178 -0.80236,1.39703 -0.98013,1.82652 -1.0647,1.97828 -1.17958,2.1166 -0.058,0.0705 -0.22329,0.33664 -0.36732,0.5927 -0.14404,0.25614 -0.42358,0.58946 -0.6212,0.74087 -0.31584,0.24185 -0.42251,0.27514 -0.88156,0.27514 -0.44467,0 -0.57377,-0.0373 -0.8692,-0.25133 z m 59.7999,-7.78482 c -0.0931,-0.042 -0.34078,-0.25236 -0.55033,-0.46841 l -0.381,-0.39261 V 109.99952 94.968267 l 0.31625,-0.289829 c 0.17394,-0.159413 0.39077,-0.289831 0.48184,-0.289831 0.0911,0 0.1843,-0.03028 0.20717,-0.0673 0.0801,-0.12964 1.24026,0.03559 1.47373,0.209941 0.52132,0.389219 0.52255,0.398071 0.54683,3.943824 0.0143,2.083668 0.0522,3.235378 0.10654,3.231948 0.0464,-0.003 0.21008,-0.17431 0.36374,-0.38094 0.15366,-0.20668 0.53479,-0.69307 0.84697,-1.08091 0.31217,-0.387856 0.66284,-0.864106 0.77926,-1.058362 0.11642,-0.194246 0.32597,-0.470321 0.46567,-0.61347 0.43093,-0.4416 0.92564,-1.078766 1.10187,-1.419162 0.0925,-0.178619 0.23536,-0.361245 0.31753,-0.405798 0.0822,-0.04457 0.24818,-0.241326 0.36891,-0.437234 0.12074,-0.1959 0.31151,-0.451442 0.42396,-0.567861 0.11245,-0.116422 0.33645,-0.389689 0.49777,-0.607264 0.16133,-0.217562 0.4049,-0.475021 0.54127,-0.57212 0.5938,-0.422839 1.6154,-0.270963 2.38222,0.354121 0.24261,0.197778 0.51241,0.401111 0.59955,0.451861 0.0871,0.05069 0.60343,0.488903 1.14733,0.973672 0.5439,0.484775 1.17055,1.033798 1.39257,1.220065 l 0.403669,0.338664 0.005,1.372863 c 0.006,1.587495 0.0266,1.548185 -0.824439,1.548185 -0.39558,0 -0.56776,-0.045 -0.81367,-0.21169 -0.17154,-0.11638 -0.34115,-0.21164 -0.37689,-0.21164 -0.0357,0 -0.14949,-0.11432 -0.25278,-0.25402 -0.10328,-0.13972 -0.23632,-0.254013 -0.29564,-0.254013 -0.0593,0 -0.23915,-0.136486 -0.39963,-0.303282 -0.16048,-0.166802 -0.61083,-0.574982 -1.00078,-0.907073 l -0.70899,-0.603803 -0.18001,0.218166 c -0.099,0.119995 -0.32287,0.389221 -0.4975,0.598296 -0.17462,0.209073 -0.3175,0.408279 -0.3175,0.44269 0,0.03442 -0.1522,0.240035 -0.33823,0.456946 -0.81732,0.953073 -1.04827,1.254243 -1.15191,1.502263 -0.0608,0.14539 -0.20752,0.32794 -0.32615,0.40566 -0.11864,0.0781 -0.21571,0.19018 -0.21571,0.24977 0,0.0598 -0.13811,0.23974 -0.30692,0.4003 -0.16879,0.16047 -0.44208,0.5013 -0.60729,0.75739 -0.16521,0.25614 -0.37,0.51544 -0.45509,0.57636 -0.0851,0.0612 -0.1547,0.15241 -0.1547,0.20341 0,0.0512 -0.18097,0.29177 -0.40216,0.53488 -0.38078,0.41837 -0.54332,0.6307 -1.17917,1.53967 -0.14795,0.21152 -0.3815,0.50357 -0.51901,0.64897 -0.1375,0.14548 -0.29268,0.34764 -0.34483,0.4493 -0.0682,0.13305 -0.0949,2.65421 -0.0951,8.97471 0,8.5506 -0.005,8.79667 -0.16433,9.0438 -0.0902,0.13967 -0.27612,0.38527 -0.41316,0.54566 -0.22931,0.26848 -0.29206,0.29375 -0.78817,0.31663 -0.29647,0.014 -0.61523,-0.009 -0.70836,-0.0509 z m 41.656008,-0.99985 c -0.40539,-0.0995 -1.30658,-0.79953 -1.56004,-1.21147 -0.1423,-0.23132 -0.29902,-0.42051 -0.34827,-0.42051 -0.0493,0 -0.13532,-0.10643 -0.19128,-0.23649 -0.10887,-0.2531 -0.3398,-0.54936 -1.30825,-1.67845 -0.33761,-0.39354 -0.61383,-0.74687 -0.61383,-0.78501 0,-0.0386 -0.30578,-0.42218 -0.67952,-0.85343 -0.37373,-0.43116 -0.7218,-0.86532 -0.77347,-0.96481 -0.0517,-0.0993 -0.18223,-0.27608 -0.29014,-0.39256 -0.50075,-0.54022 -1.13554,-1.319 -1.13554,-1.39313 0,-0.0456 -0.0975,-0.17881 -0.21677,-0.29696 -0.23106,-0.22901 -0.67446,-0.78516 -0.88389,-1.10869 -0.0699,-0.10792 -0.26035,-0.34053 -0.42334,-0.517 -0.42498,-0.46023 -0.79652,-0.92093 -0.9789,-1.21386 -0.087,-0.13968 -0.30603,-0.42548 -0.48682,-0.63499 l -0.3287,-0.38103 2.0134,-0.0233 2.01339,-0.023 0.28082,0.2722 c 0.15445,0.14967 0.28081,0.31281 0.28081,0.36264 0,0.0499 0.3258,0.467 0.72399,0.92731 0.39821,0.46023 0.7796,0.94436 0.84755,1.07566 0.068,0.13143 0.19935,0.27951 0.29201,0.3291 0.0927,0.0496 0.16845,0.1385 0.16845,0.19756 0,0.0594 0.13659,0.23869 0.30354,0.39926 0.16695,0.16046 0.39396,0.44409 0.50449,0.63046 0.11051,0.18625 0.27872,0.38658 0.37379,0.44515 0.0951,0.0589 0.17285,0.1575 0.17285,0.21974 0,0.0626 0.0806,0.18569 0.17919,0.27441 0.0985,0.0888 0.29487,0.33272 0.43626,0.54231 0.14139,0.20957 0.36556,0.4695 0.49814,0.57762 0.13259,0.10818 0.24107,0.24512 0.24107,0.30441 0,0.0596 0.0818,0.1803 0.18172,0.26901 0.0999,0.0883 0.31136,0.36248 0.46982,0.60819 0.15846,0.24583 0.32192,0.42613 0.36325,0.40049 0.0801,-0.0495 0.84788,-1.12625 0.84788,-1.18913 0,-0.021 0.29291,-0.46646 0.65092,-0.99082 1.07422,-1.57347 1.29642,-1.91522 1.29642,-1.99417 0,-0.0412 0.17144,-0.25686 0.381,-0.47869 0.20954,-0.22189 0.381,-0.4546 0.381,-0.51726 0,-0.0631 0.0478,-0.14435 0.10633,-0.1816 0.12138,-0.0773 0.571,-0.66403 0.571,-0.74505 0,-0.0296 0.0858,-0.17487 0.19071,-0.32316 0.22925,-0.324 0.35446,-0.52469 0.53779,-0.86217 0.0759,-0.13977 0.20618,-0.33021 0.28954,-0.42332 0.27167,-0.30356 1.18329,-1.68909 1.18329,-1.79848 0,-0.0589 0.0381,-0.10649 0.0847,-0.10649 0.0466,0 0.0847,-0.0412 0.0847,-0.0911 0,-0.05 0.20955,-0.36939 0.46567,-0.70968 0.25612,-0.34027 0.46567,-0.64222 0.46567,-0.67104 0,-0.0289 -3.85763,-0.0548 -8.5725,-0.0577 l -8.5725,-0.005 -0.88346,-0.27464 c -0.76908,-0.2391 -0.91705,-0.31614 -1.143,-0.59539 -0.22148,-0.27357 -0.25947,-0.39093 -0.25901,-0.79958 8.5e-4,-0.44734 0.0397,-0.54059 0.59241,-1.41032 0.32552,-0.51224 0.62055,-0.94408 0.65562,-0.9596 0.0351,-0.0159 0.0638,-0.0695 0.0638,-0.11925 0,-0.0502 0.14488,-0.28514 0.32196,-0.52213 0.4387,-0.5873 1.62537,-2.3832 1.62537,-2.45982 0,-0.0343 0.14288,-0.22514 0.3175,-0.42452 0.17463,-0.19946 0.43164,-0.5826 0.57114,-0.85139 0.13951,-0.26875 0.35858,-0.56627 0.48683,-0.66111 0.12827,-0.0947 0.2332,-0.20094 0.2332,-0.2358 0,-0.0633 0.53781,-0.874869 1.05889,-1.598111 0.15099,-0.209552 0.35687,-0.533405 0.45752,-0.719662 0.10064,-0.186272 0.29796,-0.491075 0.43849,-0.677345 0.39493,-0.523489 1.1991,-1.719086 1.40823,-2.093686 0.10347,-0.18534 0.3207,-0.513982 0.48274,-0.730312 0.16202,-0.216338 0.45836,-0.628952 0.65853,-0.916935 0.64778,-0.931955 1.20424,-1.664991 1.48919,-1.96174 l 0.27859,-0.29012 0.68221,0.05688 c 1.12886,0.09411 1.48984,0.199097 1.6568,0.481728 0.0803,0.135932 0.17405,0.247143 0.20834,0.247143 0.0343,0 0.18609,0.180979 0.33735,0.402173 0.15126,0.221187 0.57219,0.750643 0.9354,1.176554 0.36322,0.425918 0.66039,0.801822 0.66039,0.835341 0,0.03355 0.22155,0.3137 0.49235,0.622625 0.27079,0.308911 0.57828,0.703853 0.6833,0.877643 0.10502,0.173802 0.30257,0.395462 0.43898,0.492603 0.13642,0.09711 0.24804,0.224528 0.24804,0.283091 0,0.05861 0.0976,0.198191 0.21694,0.31029 0.11933,0.112103 0.29823,0.337819 0.39757,0.50159 0.0993,0.163781 0.45891,0.617492 0.79905,1.008244 0.34014,0.390762 0.61844,0.745565 0.61844,0.788464 0,0.04289 0.25717,0.375101 0.5715,0.738223 0.91673,1.059089 1.29116,1.515769 1.29116,1.574959 0,0.0308 0.17145,0.25123 0.381,0.49078 0.20955,0.23961 0.381,0.4793 0.381,0.53281 0,0.0536 0.13335,0.19896 0.29634,0.32326 0.16298,0.12431 0.29633,0.27866 0.29633,0.34295 0,0.0647 0.1143,0.19832 0.254,0.29781 0.1397,0.0993 0.254,0.22286 0.254,0.27429 0,0.0515 0.0631,0.16305 0.14012,0.24824 0.13538,0.14957 0.0712,0.1548 -1.89518,0.1548 h -2.0353 l -0.28499,-0.34141 c -0.15674,-0.1878 -0.46596,-0.54395 -0.68715,-0.79144 -0.22119,-0.2474 -0.40217,-0.47965 -0.40217,-0.51604 0,-0.063 -0.32111,-0.45314 -0.83729,-1.01812 -0.12765,-0.13969 -0.30307,-0.36834 -0.38984,-0.50802 -0.19995,-0.32187 -1.13304,-1.417226 -1.28385,-1.507051 -0.0625,-0.03723 -0.11368,-0.121739 -0.11368,-0.187792 0,-0.06612 -0.2405,-0.397534 -0.53445,-0.736625 -0.29394,-0.339103 -0.65398,-0.788 -0.80008,-0.997549 -0.1461,-0.209553 -0.49565,-0.647703 -0.77677,-0.973674 -0.28113,-0.325957 -0.51164,-0.637702 -0.51226,-0.692733 -8.5e-4,-0.05494 -0.11541,-0.181455 -0.25511,-0.280931 -0.1397,-0.09952 -0.254,-0.233171 -0.254,-0.297113 0,-0.468689 -0.65022,0.06904 -0.89677,0.741618 -0.0299,0.08151 -0.088,0.14816 -0.1291,0.14816 -0.0411,0 -0.0748,0.03641 -0.0748,0.08091 0,0.04444 -0.1524,0.298472 -0.33866,0.564375 -0.18627,0.265907 -0.33867,0.535488 -0.33867,0.599093 0,0.06363 -0.0547,0.136616 -0.12161,0.162278 -0.13462,0.0517 -0.80972,1.048576 -0.80972,1.195706 0,0.05109 -0.0311,0.105568 -0.0691,0.121096 -0.038,0.0155 -0.24622,0.294921 -0.46272,0.620898 -0.21649,0.325957 -0.62356,0.932584 -0.90458,1.348004 -0.28103,0.41539 -0.51096,0.78691 -0.51096,0.82548 0,0.0391 -0.0381,0.0705 -0.0847,0.0705 -0.0466,0 -0.0847,0.0411 -0.0847,0.0904 0,0.0499 -0.17358,0.28793 -0.38572,0.52912 -0.21214,0.2412 -0.65981,0.86029 -0.99483,1.37579 -0.33502,0.51552 -0.82819,1.26429 -1.09595,1.66401 -0.26776,0.3997 -0.48683,0.74715 -0.48683,0.77215 0,0.0255 3.93382,0.0612 8.74183,0.0798 7.46391,0.0293 8.83611,0.0535 9.38672,0.1653 0.35469,0.0727 0.72576,0.17446 0.82462,0.22742 0.2988,0.15988 0.43549,0.53749 0.43549,1.20324 0,0.70183 -0.158,1.10809 -0.71415,1.83611 -0.6621,0.86683 -0.81352,1.0803 -1.42326,2.00708 -0.33784,0.51343 -0.65235,0.99365 -0.69892,1.06709 -0.0466,0.0735 -0.22572,0.32 -0.39813,0.54811 -0.1724,0.22797 -0.3629,0.5098 -0.42333,0.62614 -0.19949,0.38438 -2.03176,3.08156 -2.40791,3.54465 -0.20293,0.24982 -0.36896,0.49159 -0.36896,0.5373 0,0.0459 -0.14288,0.24672 -0.3175,0.44675 -0.17463,0.20004 -0.39336,0.51064 -0.48607,0.69028 -0.0927,0.17974 -0.35755,0.59348 -0.58853,0.91944 -0.75417,1.06433 -1.31724,1.91791 -1.31724,1.99693 0,0.0425 -0.0291,0.0776 -0.0646,0.0776 -0.0355,0 -0.1022,0.0746 -0.14817,0.16528 -0.19987,0.39535 -1.23627,1.84798 -1.49421,2.09434 -0.41795,0.39911 -0.79575,0.51214 -1.29869,0.38834 z m -23.70667,-2.38481 c -0.1663,-0.0731 -0.66249,-0.63326 -0.86482,-0.97731 -0.0794,-0.13508 -0.10344,-3.08727 -0.10552,-12.95958 -0.003,-12.558237 0,-12.789568 0.16353,-13.057365 0.0914,-0.149932 0.32559,-0.388046 0.52038,-0.529157 0.62878,-0.455494 1.55982,-0.312561 2.12793,0.326672 l 0.23284,0.261965 v 13.004505 13.00464 l -0.45473,0.4732 c -0.4395,0.45732 -0.4714,0.47409 -0.9525,0.49976 -0.27378,0.015 -0.57397,-0.007 -0.66711,-0.0473 z M 75.780522,121.6666 c -0.19459,-0.0782 -0.72252,-0.70551 -0.82876,-0.9849 -0.0571,-0.15018 -0.0861,-4.53526 -0.0859,-12.98471 0,-12.410961 0.005,-12.765278 0.16212,-13.023415 0.42841,-0.702563 1.32544,-0.989342 2.00296,-0.640317 0.18275,0.09411 0.46562,0.309977 0.6286,0.479622 l 0.29634,0.308446 0.0235,12.758884 c 0.0129,7.01734 0.005,12.83568 -0.0178,12.92952 -0.0227,0.0935 -0.2645,0.40813 -0.53735,0.69841 l -0.49608,0.5279 -0.50211,-0.006 c -0.27618,-0.003 -0.56666,-0.032 -0.64553,-0.0639 z m 108.601588,-5.13939 c -0.13959,-0.0753 -0.32446,-0.20082 -0.41082,-0.27898 -0.4085,-0.36975 -0.39938,-0.20751 -0.37876,-6.72544 0.0106,-3.36441 0.0212,-8.15546 0.0234,-10.64678 l 0.004,-4.529603 -1.143,-0.139617 c -0.62865,-0.07677 -1.8669,-0.237968 -2.75167,-0.358188 -7.46412,-1.014245 -9.86244,-1.334231 -14.30866,-1.909029 -0.74507,-0.09634 -1.58327,-0.213071 -1.86267,-0.259442 -0.2794,-0.04639 -1.5367,-0.219822 -2.794,-0.385442 -1.2573,-0.16563 -2.99085,-0.395598 -3.85233,-0.511058 -0.86149,-0.115452 -2.29024,-0.304065 -3.175,-0.419123 -1.92003,-0.24969 -3.53224,-0.466804 -8.763,-1.180111 -0.86149,-0.117467 -1.64932,-0.213787 -1.75074,-0.214041 -0.18,-8.36e-4 -0.18505,0.02966 -0.21167,1.265113 l -0.0273,1.265542 -0.29633,0.308024 c -0.41934,0.435862 -0.67955,0.547556 -1.27562,0.547556 -0.46377,0 -0.56731,-0.03325 -0.92779,-0.297854 -0.23739,-0.174251 -0.4441,-0.407852 -0.49817,-0.562967 -0.0653,-0.187237 -0.0924,-4.192144 -0.0924,-13.63408 0,-14.569693 -0.034,-13.573662 0.47927,-14.048694 0.36346,-0.336395 0.60687,-0.433684 1.08501,-0.433684 0.48939,0 0.82864,0.146881 1.15587,0.500439 0.35059,0.378806 0.41251,0.566563 0.41251,1.250841 0,0.452407 0.0311,0.642538 0.10584,0.647289 0.74305,0.04731 3.17827,0.380651 3.53483,0.483913 0.16298,0.04721 0.98213,0.148889 1.82033,0.225949 0.8382,0.07707 1.6383,0.178425 1.778,0.225226 0.1397,0.0468 0.88265,0.15842 1.651,0.248033 2.71269,0.316394 3.3813,0.405516 3.4745,0.463107 0.0862,0.05334 0.79229,0.158549 2.56581,0.382612 0.73287,0.09257 0.90495,0.16427 1.35709,0.565346 l 0.30727,0.272585 v 8.102411 c 0,4.456315 -0.0245,8.077858 -0.0545,8.047872 -0.03,-0.02997 -0.18308,0.05839 -0.34021,0.196332 -0.35105,0.308227 -0.57323,0.367915 -1.20043,0.322545 -0.36684,-0.0265 -0.56431,-0.09329 -0.7938,-0.268325 -0.59773,-0.455905 -0.57437,-0.147605 -0.57437,-7.580325 v -6.675297 l -0.65617,-0.05801 c -0.36089,-0.03192 -0.79692,-0.09524 -0.96896,-0.140672 -0.17203,-0.04546 -0.95308,-0.161194 -1.73567,-0.257148 -2.32041,-0.284533 -3.25351,-0.404009 -3.83587,-0.491102 -0.30268,-0.04526 -1.08373,-0.142041 -1.73567,-0.215025 -0.65193,-0.07299 -1.43298,-0.189588 -1.73566,-0.259129 -0.30269,-0.06951 -0.95039,-0.16403 -1.43934,-0.210012 -0.48895,-0.04598 -1.03206,-0.103559 -1.2069,-0.127988 l -0.31791,-0.04435 0.0216,8.488938 0.0216,8.488938 0.381,0.05878 c 0.20955,0.03233 1.1049,0.156069 1.98966,0.27499 2.65657,0.357083 3.99729,0.538685 5.334,0.722465 0.6985,0.09604 2.01295,0.27138 2.921,0.389662 3.48727,0.454212 4.83627,0.63269 6.35,0.840152 0.86149,0.11807 2.11879,0.289143 2.794,0.380151 0.67522,0.09095 1.79917,0.244121 2.49767,0.340233 1.515,0.208472 3.12343,0.420179 5.41867,0.713244 0.93133,0.118908 1.78858,0.235831 1.905,0.259818 0.11641,0.024 0.80221,0.118421 1.524,0.209874 0.72178,0.09134 2.01718,0.261837 2.87866,0.378662 0.86149,0.116819 2.55694,0.345411 3.76767,0.507991 1.21073,0.162569 2.34421,0.316155 2.51883,0.341307 l 0.3175,0.04567 V 78.055398 64.683507 l 0.22933,-0.272555 c 0.5907,-0.70199 1.70799,-0.767008 2.38107,-0.138574 0.45967,0.429204 0.4376,-0.04962 0.4376,9.495627 v 8.851915 h 5.83591 5.83591 l 0.0523,-0.48684 c 0.0288,-0.267762 0.0865,-0.63923 0.1282,-0.825502 0.0417,-0.186265 0.0977,-0.681566 0.12451,-1.100665 0.068,-1.065267 0.29242,-3.842692 0.33517,-4.148688 0.0628,-0.449118 0.21098,-2.081767 0.30362,-3.344352 0.0495,-0.675217 0.12352,-1.341971 0.1644,-1.481668 0.0409,-0.139704 0.0983,-0.66898 0.12759,-1.176174 0.0293,-0.507217 0.0855,-0.983463 0.12483,-1.058344 0.0394,-0.07491 0.0997,-0.650519 0.13395,-1.27917 0.0343,-0.628652 0.0958,-1.352552 0.13668,-1.608661 0.0409,-0.256121 0.11036,-0.884555 0.15441,-1.396515 0.044,-0.511979 0.10562,-1.169198 0.13682,-1.460513 l 0.0567,-0.529664 h 1.60633 1.60632 l -0.0464,0.486837 c -0.0255,0.267762 -0.10337,1.134547 -0.17296,1.926178 -0.0696,0.791631 -0.16746,1.610781 -0.21746,1.820336 -0.05,0.209554 -0.0841,0.572794 -0.0758,0.807195 0.008,0.234401 -0.0236,0.501104 -0.071,0.592668 -0.0473,0.09158 -0.10932,0.528436 -0.13772,0.970821 -0.10951,1.706397 -0.22871,3.021084 -0.30703,3.386685 -0.0449,0.209539 -0.1248,1.00965 -0.17755,1.778007 -0.0528,0.768352 -0.13115,1.663704 -0.1742,1.989667 -0.0758,0.573947 -0.22395,2.28732 -0.4105,4.747503 -0.0497,0.655313 -0.12772,1.321811 -0.1734,1.481114 -0.0457,0.159292 -0.0831,0.468993 -0.0831,0.688223 0,0.451298 -0.19792,1.288951 -0.35358,1.496435 -0.26169,0.348797 -0.55317,0.628966 -0.74709,0.718117 -0.15124,0.06951 -2.13295,0.109401 -6.94266,0.139646 l -6.731,0.04231 -0.0423,15.001014 c -0.0423,14.98618 -0.0425,15.00123 -0.2169,15.23478 -0.33891,0.45396 -0.59442,0.57817 -1.24789,0.6068 -0.44142,0.0198 -0.67954,-0.0114 -0.86335,-0.11029 z m -0.71985,-23.61644 c 0,-0.442433 0.15702,-0.388599 -1.86266,-0.63864 -0.72179,-0.08938 -2.01719,-0.257455 -2.87867,-0.373574 -3.56971,-0.481159 -4.16331,-0.561646 -5.37634,-0.729055 -1.35575,-0.187119 -3.53572,-0.47802 -6.01133,-0.802199 -0.8382,-0.109755 -2.26695,-0.299767 -3.175,-0.422257 -0.90805,-0.122479 -2.1844,-0.2939 -2.83633,-0.380946 -0.65193,-0.08705 -1.77588,-0.238514 -2.49767,-0.336605 -3.90598,-0.530856 -6.0601,-0.816153 -8.636,-1.143773 -0.95462,-0.121423 -1.79281,-0.237382 -1.86266,-0.257692 -0.0699,-0.0203 -0.73661,-0.114612 -1.48167,-0.209541 -0.74507,-0.09493 -1.90712,-0.247003 -2.58234,-0.337922 -0.67521,-0.09086 -1.27748,-0.166661 -1.33836,-0.16831 -0.0782,-0.0021 -0.10306,0.10259 -0.0847,0.356814 l 0.026,0.359849 0.71967,0.09452 c 0.39582,0.05201 1.36737,0.177862 2.159,0.27979 0.79163,0.101914 1.51554,0.203141 1.60867,0.224933 0.0931,0.02184 0.74083,0.112638 1.43933,0.201901 1.59683,0.20407 4.88124,0.642793 6.06089,0.809596 0.49291,0.06974 1.65496,0.224797 2.58233,0.344639 1.73247,0.223889 2.898,0.378539 5.62312,0.746057 0.86148,0.116186 2.59503,0.346758 3.85233,0.512388 1.2573,0.165621 2.5146,0.339418 2.794,0.386227 0.2794,0.0468 1.1176,0.16072 1.86266,0.253131 0.74507,0.09237 2.05952,0.262633 2.921,0.378243 6.18732,0.830347 7.04691,0.947207 8.04334,1.093428 0.44238,0.06494 0.83291,0.122114 0.86783,0.12712 0.0349,0.0051 0.0635,-0.160634 0.0635,-0.368071 z m -82.21129,1.298045 c -0.11639,-0.04639 -0.30099,-0.167826 -0.4102,-0.269802 -0.42193,-0.393941 -0.43649,-0.49082 -0.43649,-2.904306 v -2.261636 l 0.26745,-0.416788 c 0.1471,-0.229233 0.35912,-0.45165 0.47117,-0.494246 0.11205,-0.04261 0.50344,-0.07738 0.86976,-0.07738 0.6454,0 0.67786,0.01026 1.04742,0.317502 l 0.38139,0.317503 0.005,2.627729 0.005,2.627749 -0.47746,0.314428 c -0.42396,0.279206 -0.53544,0.313837 -0.99483,0.309075 -0.28456,-0.0031 -0.61261,-0.04328 -0.729,-0.08981 z M 75.966262,93.485332 c -0.41017,-0.139647 -0.66142,-0.303142 -0.84783,-0.551713 -0.21008,-0.280127 -0.21056,-0.285203 -0.23717,-2.524363 -0.0288,-2.4236 9.3e-4,-2.660259 0.39266,-3.12922 0.22992,-0.275224 0.28111,-0.294943 0.84897,-0.327037 0.97709,-0.05515 1.13773,0.0041 1.53212,0.559381 l 0.34325,0.48387 v 2.215918 2.215928 l -0.27639,0.366423 c -0.43076,0.57108 -1.20845,0.877095 -1.75561,0.690813 z m -32.36033,-1.633107 c -0.70892,-0.221871 -0.95747,-0.687322 -1.04185,-1.950969 -0.0737,-1.103943 -0.49804,-4.009716 -0.80983,-5.545693 -0.61921,-3.05043 -1.95193,-7.658501 -2.82824,-9.779042 -0.0674,-0.16298 -0.29231,-0.734483 -0.4999,-1.270008 -0.20759,-0.535514 -0.59343,-1.468968 -0.85742,-2.074339 -0.26399,-0.605376 -0.6346,-1.462624 -0.82358,-1.905006 -0.18898,-0.442385 -0.37595,-0.846292 -0.41549,-0.897597 -0.0395,-0.05133 -0.38624,-0.116357 -0.77045,-0.144606 -2.12209,-0.156015 -4.49048,-1.318937 -6.40424,-3.144617 -2.70269,-2.5783 -4.57557,-6.31263 -5.13324,-10.235143 -0.16255,-1.143305 -0.1637,-3.986611 -0.002,-5.058927 0.32762,-2.173361 1.22475,-4.361713 2.36846,-5.777305 l 0.42248,-0.522917 0.0196,-1.509734 c 0.0223,-1.71015 0.11915,-2.681918 0.41929,-4.205291 1.79702,-9.120812 9.14235,-16.347215 18.40608,-18.108065 2.97668,-0.56581 6.45085,-0.44305 9.44757,0.333804 3.80047,0.985226 6.40729,2.394249 9.8674,5.333454 0.3345,0.284136 0.64494,0.449096 1.17436,0.624034 2.89983,0.958182 5.07813,3.232226 5.878,6.136356 0.25771,0.93568 0.30996,1.328228 0.31361,2.35593 l 0.003,0.840344 0.89192,0.797567 c 1.06079,0.948575 3.11807,3.049508 4.30893,4.400361 0.95801,1.086717 3.09308,3.739096 3.92643,4.87778 0.88795,1.213285 2.8108,4.115566 3.52475,5.320153 5.70801,9.630569 9.60027,20.342378 11.79827,32.469811 0.47813,2.638069 1.042809,7.162177 0.939099,7.523818 -0.19057,0.664496 -0.776079,1.076986 -1.424899,1.003867 -0.39846,-0.04485 -0.70972,-0.23128 -0.97119,-0.581506 -0.16409,-0.21979 -0.18442,-0.341908 -0.61089,-3.670494 -0.86412,-6.744516 -2.88457,-14.838942 -5.25169,-21.039766 -0.16888,-0.442375 -0.37704,-0.994828 -0.46259,-1.227659 -0.35102,-0.955432 -1.35009,-3.339126 -2.07595,-4.953019 -1.93223,-4.296228 -4.88448,-9.455486 -7.249,-12.668154 -0.17559,-0.238576 -0.54494,-0.756342 -0.82076,-1.1506 -0.27584,-0.394268 -0.89733,-1.183522 -1.3811,-1.753909 -0.48377,-0.570388 -0.97402,-1.157525 -1.08946,-1.304742 -0.5814,-0.741519 -2.29983,-2.613789 -3.47064,-3.781359 -3.23085,-3.221922 -6.78773,-5.886609 -10.67046,-7.993911 -3.05631,-1.658784 -5.45185,-2.286646 -8.72067,-2.285686 -1.8995,5.93e-4 -3.07173,0.143919 -4.77943,0.584503 -3.75909,0.969832 -6.81522,2.721262 -9.40561,5.390247 -1.21917,1.256156 -2.07718,2.371517 -2.88823,3.754511 -0.42867,0.730954 -1.0454,1.954834 -1.0454,2.074564 0,0.0488 0.0997,0.126536 0.2215,0.172845 1.92699,0.732652 3.18806,1.550874 4.69561,3.046668 2.20802,2.190805 3.7574,5.090873 4.5601,8.535403 0.31807,1.364903 0.42879,2.393982 0.42879,3.985266 0,1.60255 -0.17291,2.929529 -0.55479,4.25743 -0.87932,3.057684 -2.73439,5.430235 -5.0521,6.461368 -0.31307,0.139282 -0.57024,0.303423 -0.5715,0.364767 -10e-4,0.06127 0.26885,0.728082 0.60023,1.481669 3.00358,6.830445 4.8674,13.600555 5.45683,19.821323 0.126,1.329767 0.12549,1.452601 -0.008,1.800786 -0.22874,0.598949 -0.98633,0.977917 -1.58218,0.791435 z m -6.03164,-26.336192 c 2.38937,-0.611104 4.28814,-2.595551 5.19076,-5.425015 0.32692,-1.024796 0.41888,-1.508477 0.51347,-2.700568 0.16345,-2.060213 -0.16573,-4.201403 -0.96378,-6.268974 -2.29176,-5.937429 -7.73157,-9.09902 -11.98021,-6.962845 -2.14407,1.078021 -3.55316,3.107221 -4.20734,6.058948 -0.20162,0.909727 -0.22915,1.215272 -0.23042,2.557181 -10e-4,1.242891 0.0339,1.703613 0.18988,2.497677 0.61038,3.106463 1.88933,5.620071 3.85714,7.580732 0.99234,0.988736 1.66801,1.487106 2.75511,2.032171 1.55519,0.779762 3.37307,1.014922 4.87539,0.630693 z m -2.54437,-2.678709 c -2.74798,-0.433814 -5.2265,-2.82196 -6.30248,-6.072641 -0.43826,-1.324057 -0.5348,-1.92517 -0.54559,-3.397256 -0.011,-1.494754 0.0808,-2.127188 0.46952,-3.237369 0.69904,-1.996282 2.11385,-3.320345 3.96853,-3.713993 2.56164,-0.543695 5.62365,1.352548 7.19171,4.453691 1.22271,2.418152 1.56098,5.342141 0.88706,7.667717 -0.75559,2.607381 -2.49806,4.176554 -4.77975,4.304385 -0.34925,0.01961 -0.7493,0.01755 -0.889,-0.0041 z m 1.40909,-2.7678 0.22376,-0.01334 -0.17148,-0.338672 c -0.0943,-0.186258 -0.4904,-0.899117 -0.88019,-1.584108 -0.38979,-0.685001 -0.75281,-1.342226 -0.8067,-1.460509 -0.14828,-0.325429 -0.28489,-0.261163 -0.48774,0.229448 -0.10109,0.24447 -0.2175,0.520697 -0.2587,0.61383 -0.0506,0.114417 -0.0768,-0.08554 -0.0806,-0.616493 -0.004,-0.557621 -0.0373,-0.797952 -0.11452,-0.82758 -0.10171,-0.03902 -2.56569,0.995473 -2.70788,1.13689 -0.1046,0.104032 0.72387,1.211628 1.28842,1.722518 1.00477,0.909265 1.93307,1.274065 3.05225,1.199453 0.39582,-0.0264 0.82036,-0.05406 0.94342,-0.06137 z m 1.12866,-0.84213 c 0.76864,-0.768646 1.21274,-1.743766 1.4244,-3.127582 0.0447,-0.292053 0.0303,-0.295961 -1.33748,-0.363864 -0.60537,-0.03007 -1.11972,-0.05586 -1.143,-0.05739 -0.18078,-0.01188 -0.33867,0.02897 -0.33867,0.08777 0,0.03883 0.29481,0.387919 0.65513,0.775774 0.36031,0.387843 0.61749,0.689403 0.5715,0.670144 -0.046,-0.01932 -0.41332,-0.254061 -0.81627,-0.521764 -0.40296,-0.267708 -0.77444,-0.486743 -0.8255,-0.486743 -0.13271,0 -0.11552,0.175178 0.0678,0.690967 0.12491,0.351444 0.6831,2.059652 0.90161,2.759215 0.0685,0.219251 0.32465,0.08921 0.84045,-0.42656 z m -5.5159,-3.298267 c 0.70072,-0.745047 0.95126,-1.06519 0.89071,-1.138156 -0.0463,-0.05575 -0.39573,-0.208475 -0.77641,-0.339196 l -0.69215,-0.237669 0.65617,-0.0247 c 0.38536,-0.01447 0.65617,-0.06127 0.65617,-0.113467 0,-0.122676 -2.10454,-2.317142 -2.22219,-2.317142 -0.33814,0 -0.476,2.41846 -0.20029,3.513679 0.18781,0.746034 0.54888,1.693337 0.64543,1.693337 0.0372,0 0.50634,-0.466487 1.04256,-1.036647 z m 6.94859,-0.931855 c -0.30176,-1.766572 -0.56784,-2.516836 -1.27352,-3.590854 -0.24971,-0.380048 -0.65323,-0.870109 -0.8967,-1.089014 -0.50791,-0.456644 -1.11144,-0.886988 -1.24397,-0.886988 -0.0507,0 -0.0933,0.176895 -0.0968,0.402171 -0.003,0.221187 -0.0511,1.139285 -0.10583,2.040214 -0.0548,0.900924 -0.0731,1.680861 -0.0407,1.733189 0.072,0.11634 0.49952,-0.02419 1.54979,-0.509434 0.0466,-0.02155 -0.15346,0.191598 -0.4445,0.473595 -0.29105,0.281993 -0.52917,0.563415 -0.52917,0.62539 0,0.104203 2.61463,1.038825 2.98238,1.066079 0.11924,0.0092 0.13742,-0.03965 0.0991,-0.264348 z m -5.53677,-2.049192 c 0,-0.06767 -0.035,-0.210532 -0.0779,-0.317502 -0.15369,-0.38392 -0.35429,-1.102893 -0.31788,-1.139312 0.0204,-0.02043 0.20816,0.279052 0.41717,0.665508 0.20901,0.386464 0.43257,0.702658 0.49679,0.702658 0.0764,0 0.3134,-0.585409 0.68552,-1.693347 0.31281,-0.931337 0.56998,-1.75347 0.5715,-1.826965 0.004,-0.172111 -0.6647,-0.332038 -1.38745,-0.332038 -0.93443,0 -1.91515,0.463446 -2.48445,1.174048 -0.37395,0.466774 -0.7086,1.025238 -0.66075,1.102678 0.0235,0.03804 0.51063,0.384619 1.08255,0.770283 0.57192,0.385651 1.115,0.772251 1.20684,0.859095 0.19871,0.187918 0.46802,0.207988 0.46802,0.03492 z m 2.1745,-4.718879 c -0.027,-0.06755 -0.0471,-0.0475 -0.0512,0.05116 -0.004,0.08926 0.0163,0.139259 0.0445,0.111124 0.0281,-0.02811 0.0311,-0.101186 0.007,-0.162279 z m -5.24099,-7.003774 c 0.26629,-0.08889 0.78896,-0.206933 1.16149,-0.262301 0.37253,-0.05534 0.75557,-0.114848 0.85119,-0.132153 0.12067,-0.02188 0.23452,-0.181198 0.37212,-0.520863 0.54346,-1.341524 1.79556,-3.507641 2.76485,-4.783167 3.20611,-4.219052 7.73088,-7.105854 13.03228,-8.314582 1.58872,-0.362227 2.55734,-0.480131 4.35789,-0.530463 1.77196,-0.0496 2.74669,0.01332 4.36034,0.281409 l 0.84666,0.140632 0.74344,-0.402903 c 0.40889,-0.221586 0.99944,-0.49235 1.31233,-0.601683 0.3129,-0.109339 0.5689,-0.24761 0.5689,-0.307272 0,-0.156092 -0.9246,-0.739547 -2.24367,-1.415836 -1.91678,-0.982728 -3.55536,-1.523694 -5.8278,-1.924025 -1.7188,-0.302795 -4.15551,-0.318305 -5.8562,-0.03728 -2.1865,0.361326 -3.89266,0.893758 -5.715,1.783438 -5.14695,2.512789 -8.9487,6.937396 -10.66311,12.410086 -0.35554,1.134974 -0.80922,3.674009 -0.80922,4.528886 0,0.299809 0.0806,0.309343 0.74351,0.08802 z m 38.96516,-8.553963 c 0,-0.09034 -0.18098,-0.518317 -0.40217,-0.951106 -0.31651,-0.619299 -0.55544,-0.942404 -1.12183,-1.51707 -1.13247,-1.148997 -2.32596,-1.744929 -3.86797,-1.931345 -0.8606,-0.104036 -1.8047,-0.02264 -1.8047,0.155622 0,0.0418 0.44768,0.314068 0.99483,0.605027 1.8252,0.970567 4.96449,2.931249 5.73617,3.582606 0.30609,0.258361 0.46567,0.27764 0.46567,0.05623 z m 64.498918,57.283843 c -0.63718,-0.28279 -0.99892,-0.914469 -0.99892,-1.744305 0,-0.523328 -0.019,-0.590376 -0.18178,-0.642048 -0.20162,-0.06404 -1.34694,-0.215559 -3.45888,-0.457738 -0.76836,-0.08808 -1.5113,-0.198055 -1.651,-0.244313 -0.1397,-0.04628 -0.92075,-0.146677 -1.73567,-0.223146 -1.40708,-0.132033 -1.91432,-0.207687 -2.65025,-0.395249 -0.29041,-0.07399 -0.90242,-0.15367 -4.12308,-0.53662 -1.65957,-0.197328 -2.49948,-0.547917 -2.85068,-1.189904 l -0.18368,-0.335752 -0.007,-7.431222 -0.007,-7.431208 0.20162,-0.319405 c 0.24105,-0.381842 0.74716,-0.841164 1.05662,-0.95895 0.214,-0.08149 1.12631,-0.21394 1.98182,-0.287819 0.22205,-0.01923 0.48794,-0.07994 0.59087,-0.135006 0.10293,-0.05508 0.969,-0.191317 1.92461,-0.302723 0.95559,-0.111411 2.00416,-0.241005 2.33012,-0.287951 0.96034,-0.138342 2.27137,-0.30654 3.83792,-0.4924 0.80699,-0.09575 1.50155,-0.195272 1.54347,-0.221187 0.10362,-0.06404 1.82747,-0.301805 2.66195,-0.367173 l 0.67733,-0.05303 0.0423,-0.680659 c 0.0379,-0.609224 0.0734,-0.723871 0.33867,-1.092275 0.35989,-0.499902 0.75336,-0.666632 1.46164,-0.619343 0.54185,0.0362 0.83461,0.204303 1.14186,0.655742 l 0.1905,0.279912 v 12.258688 c 0,8.309857 -0.0285,12.333564 -0.0884,12.491114 -0.26731,0.703081 -1.30733,1.091547 -2.04537,0.763982 z M 132.86226,76.68749 c 0,-7.222495 -0.008,-7.623466 -0.14817,-7.582867 -0.0815,0.02363 -0.66251,0.08798 -1.29116,0.143192 -0.62865,0.05515 -1.21357,0.137133 -1.29983,0.182117 -0.0863,0.04495 -0.60061,0.133367 -1.143,0.196397 -2.74278,0.318722 -3.81442,0.45787 -4.16117,0.54032 -0.20955,0.04981 -1.08585,0.168573 -1.94734,0.263883 -0.86148,0.09534 -1.77588,0.206771 -2.03199,0.247679 -0.25612,0.04087 -0.63712,0.09891 -0.84667,0.128933 -0.20955,0.02997 -0.46673,0.07197 -0.5715,0.09319 l -0.1905,0.03872 v 5.798091 c 0,5.464117 0.009,5.798284 0.14817,5.801761 0.0815,0.0021 0.60536,0.06137 1.16416,0.131863 0.5588,0.07049 1.397,0.174295 1.86267,0.230689 0.46566,0.05637 0.89241,0.131503 0.94832,0.166898 0.10415,0.06593 1.0364,0.193666 3.49668,0.479067 0.76835,0.0891 1.5113,0.199337 1.651,0.244912 0.1397,0.04557 0.9398,0.146492 1.778,0.224328 0.8382,0.07779 1.61925,0.17337 1.73567,0.212332 0.11641,0.039 0.35454,0.07387 0.52916,0.07759 l 0.3175,0.0072 v -7.62578 z m 46.31267,10.754425 c -1.48833,-0.18313 -3.16404,-0.402259 -3.85233,-0.503764 -0.27941,-0.04118 -1.145,-0.150377 -1.92356,-0.242628 -0.77856,-0.09216 -1.45735,-0.19356 -1.50844,-0.225144 -0.0511,-0.03161 -0.23325,-0.05565 -0.40479,-0.05365 -0.17153,0.0021 -0.44523,-0.03845 -0.60822,-0.0901 -0.16298,-0.0517 -0.39158,-0.102529 -0.50799,-0.113041 -1.06873,-0.09653 -2.77169,-0.316548 -3.21734,-0.415731 -0.30268,-0.0674 -1.02658,-0.166278 -1.60866,-0.219793 -1.5576,-0.143199 -2.05771,-0.288539 -2.45534,-0.713551 l -0.21166,-0.226248 -0.0224,-8.050918 -0.0224,-8.050933 0.19177,-0.205354 c 0.29566,-0.316589 0.58667,-0.433458 1.30698,-0.524857 0.36454,-0.04628 1.06284,-0.142386 1.55179,-0.213623 0.48895,-0.07116 1.32715,-0.18412 1.86267,-0.25086 0.53552,-0.06671 1.08797,-0.159246 1.22767,-0.205586 0.1397,-0.04628 0.92075,-0.146788 1.73566,-0.223225 0.81492,-0.07636 1.61502,-0.177122 1.778,-0.223738 0.16299,-0.04659 0.92499,-0.156439 1.69334,-0.244045 1.83327,-0.209056 3.24337,-0.398147 3.76766,-0.505241 0.34564,-0.07059 2.53767,-0.337625 2.77471,-0.337992 0.0359,-6.1e-5 0.055,0.714271 0.0423,1.587403 l -0.023,1.587503 -0.762,0.09792 c -1.48984,0.191381 -2.71354,0.375812 -3.00566,0.452996 -0.16299,0.0431 -0.96309,0.138855 -1.778,0.212876 -0.81492,0.074 -1.59597,0.17327 -1.73567,0.220518 -0.1397,0.04731 -0.92075,0.160317 -1.73567,0.251222 -0.81491,0.09089 -1.69121,0.201601 -1.94733,0.245972 -0.25612,0.04435 -0.92287,0.137614 -1.48167,0.20723 -0.5588,0.06965 -1.34937,0.171744 -1.75683,0.226938 l -0.74083,0.100386 v 5.814853 5.814846 l 0.91016,0.100806 c 1.08895,0.12058 1.83291,0.22426 2.51884,0.35101 0.61396,0.113458 0.72972,0.129452 2.07433,0.286664 0.58208,0.06812 1.19168,0.161559 1.35467,0.207781 0.16298,0.04618 0.94403,0.146615 1.73566,0.223093 0.79164,0.07646 1.59143,0.178784 1.77732,0.227326 0.18589,0.04854 0.94789,0.160127 1.69334,0.247972 0.74544,0.08777 1.70777,0.204882 2.13851,0.260093 l 0.78317,0.100396 v 1.593795 1.593795 l -0.1905,-0.01111 c -0.10478,-0.0062 -0.74295,-0.07912 -1.41817,-0.1622 z M 64.908942,52.09863 c -1.01407,-0.220618 -1.70841,-0.722976 -2.33668,-1.690584 -0.36384,-0.560354 -0.53709,-1.096694 -0.60947,-1.886768 -0.0599,-0.653287 -0.13607,-0.594966 1.80612,-1.381994 0.79479,-0.322063 2.29271,-0.97031 3.32871,-1.440532 1.54539,-0.701428 1.9344,-0.846774 2.16636,-0.80942 0.43656,0.07031 0.52161,0.187014 0.52161,0.715784 0,0.259592 0.0414,0.895518 0.0919,1.413162 0.26137,2.676648 -0.90544,4.576156 -3.11428,5.069922 -0.71904,0.160738 -1.1522,0.163176 -1.85426,0.01042 z m 2.18219,-1.035577 c 0.90357,-0.40677 1.50125,-1.246336 1.68033,-2.360373 0.0832,-0.517732 0.0423,-2.503789 -0.0551,-2.672814 -0.0178,-0.0309 -0.57509,0.193177 -1.2384,0.497953 -0.66331,0.304775 -1.92992,0.850458 -2.81468,1.212621 l -1.60867,0.658482 -0.0265,0.355829 c -0.0534,0.716706 0.80499,1.948284 1.63344,2.343682 0.37551,0.179217 0.51881,0.199368 1.22939,0.172855 0.58605,-0.02191 0.91176,-0.07838 1.20021,-0.208235 z m -11.469,-4.17601 c -0.73308,-0.123257 -1.93744,-0.784121 -1.80867,-0.992471 0.0811,-0.131231 1.99862,-1.462364 2.23724,-1.553092 0.3021,-0.114861 0.67439,-0.09111 0.9756,0.06213 0.24461,0.12448 1.99173,1.191997 2.08931,1.276607 0.0805,0.06983 -0.64527,0.622259 -1.14102,0.8685 -0.2794,0.138787 -0.75565,0.291199 -1.05833,0.338697 -0.61527,0.0966 -0.71772,0.09658 -1.29413,-4.22e-4 z m -2.30194,-1.3982 c -0.65804,-0.862737 -0.89315,-2.237734 -0.56651,-3.313122 0.16928,-0.557317 0.63263,-1.381341 0.77672,-1.381341 0.0382,0 0.4347,0.460966 0.88103,1.024367 1.13584,1.4338 1.14516,1.326779 -0.28917,3.320835 -0.25612,0.356058 -0.48972,0.648003 -0.51912,0.648766 -0.0294,7.61e-4 -0.15672,-0.134017 -0.28295,-0.299505 z m 5.66334,-0.312946 c -0.13857,-0.151342 -0.3682,-0.427568 -0.51028,-0.613838 -0.94395,-1.237536 -0.89987,-1.159076 -0.85833,-1.527653 0.0299,-0.265118 0.20724,-0.585925 0.74332,-1.344543 l 0.70407,-0.996357 0.1606,0.1986 c 0.58108,0.71856 0.90059,1.96366 0.7508,2.925815 -0.0832,0.534123 -0.53772,1.633148 -0.67548,1.633148 -0.0345,0 -0.17613,-0.123828 -0.3147,-0.275172 z m 5.06407,-3.108906 c -0.86517,-0.311334 -1.52788,-1.048794 -1.722,-1.916214 -0.0564,-0.251965 -0.0813,-0.479346 -0.0553,-0.5053 0.0259,-0.02594 0.4412,0.0021 0.92277,0.06207 1.19362,0.14897 1.29607,0.242369 1.5172,1.38316 0.0903,0.46567 0.16425,0.913345 0.1644,0.994837 3.4e-4,0.193726 -0.25292,0.188045 -0.82704,-0.01857 z m 1.08132,0.06617 c 0,-0.068 0.0594,-0.520764 0.13197,-1.006175 0.18441,-1.233326 0.19626,-1.243621 1.79997,-1.563484 0.38735,-0.07724 0.72405,-0.120679 0.74823,-0.09657 0.0734,0.07339 -0.1492,1.010263 -0.31987,1.346326 -0.34514,0.67958 -1.20721,1.285387 -1.97982,1.391277 -0.30091,0.04122 -0.38048,0.02631 -0.38048,-0.0714 z m -9.2195,-0.155979 c -0.28523,-0.12048 -2.11107,-1.25974 -2.16891,-1.353325 -0.0699,-0.113052 0.68882,-0.644137 1.22841,-0.859897 0.66017,-0.263968 1.95524,-0.270087 2.64271,-0.01248 0.45001,0.168616 1.25299,0.670585 1.25115,0.782117 -4.3e-4,0.02702 -0.46108,0.368541 -1.02362,0.758909 -1.07125,0.743379 -1.46231,0.882133 -1.92974,0.684691 z m 6.3738,-2.963576 c 0.18222,-1.139542 1.07498,-2.066809 2.23525,-2.321651 0.32494,-0.07132 0.32127,-0.09797 0.14113,1.021573 -0.19291,1.198792 -0.25669,1.260567 -1.52034,1.472463 -0.32597,0.05465 -0.66491,0.119392 -0.7532,0.143853 -0.14541,0.04024 -0.15509,0.01051 -0.10284,-0.316238 z m 5.30104,0.206019 c -0.0699,-0.01153 -0.48863,-0.07067 -0.93062,-0.131561 -1.21208,-0.166814 -1.22646,-0.186873 -1.56137,-2.178014 l -0.0481,-0.285998 0.35861,0.05733 c 1.18732,0.189859 2.08311,1.016112 2.33968,2.158057 0.0807,0.359373 0.0573,0.415751 -0.1582,0.380163 z m -45.6354,-20.358214 c 4e-5,-0.211878 0.0321,-0.421433 0.0713,-0.46567 0.0392,-0.04421 0.11923,-0.309033 0.17785,-0.588432 0.18711,-0.891895 0.67341,-1.801654 1.32593,-2.480575 0.32234,-0.335377 0.63106,-0.609772 0.68606,-0.609772 0.055,0 0.80999,0.840226 1.67779,1.867165 l 1.5778,1.86717 -0.0574,0.340077 c -0.0316,0.187036 -0.10128,0.355527 -0.15485,0.374432 -0.0536,0.01892 -1.269,0.04477 -2.70096,0.0576 l -2.60356,0.02326 z m 23.68194,-5.303937 c -0.0223,-0.03754 0.0108,-0.811145 0.0735,-1.719197 0.0628,-0.908053 0.11557,-1.778407 0.11735,-1.9341186 l 0.003,-0.2831133 0.4445,0.060657 c 0.57551,0.078542 1.3556,0.3159028 1.38812,0.4223789 0.014,0.04572 -0.36506,0.844864 -0.84231,1.775801 -0.79385,1.548493 -1.04747,1.90772 -1.18443,1.677593 z m -13.01388,-3.249632 c -0.72178,-0.9312806 -1.34936,-1.7475784 -1.39462,-1.8139941 -0.16388,-0.2404954 0.90949,-1.0991796 1.73928,-1.3914006 0.22982,-0.080938 0.44315,-0.1724405 0.47405,-0.203342 0.0309,-0.030898 0.50995,-0.056178 1.06455,-0.056178 h 1.00836 l -0.0598,1.8838407 c -0.0329,1.0361124 -0.0834,2.129082 -0.11231,2.428814 l -0.0525,0.544981 -0.39253,0.1 c -1.02709,0.261558 -0.79868,0.411457 -2.27447,-1.492678 z"
       id="path40" />
  </g>
</svg>
