<?xml version="1.0" encoding="UTF-8" standalone="no"?>
<svg
   xmlns:dc="http://purl.org/dc/elements/1.1/"
   xmlns:cc="http://creativecommons.org/ns#"
   xmlns:rdf="http://www.w3.org/1999/02/22-rdf-syntax-ns#"
   xmlns:svg="http://www.w3.org/2000/svg"
   xmlns="http://www.w3.org/2000/svg"
   xmlns:sodipodi="http://sodipodi.sourceforge.net/DTD/sodipodi-0.dtd"
   xmlns:inkscape="http://www.inkscape.org/namespaces/inkscape"
   sodipodi:docname="ghost logo 2021.svg"
   inkscape:version="1.0 (4035a4fb49, 2020-05-01)"
   id="svg8"
   version="1.1"
   viewBox="0 0 264.58332 264.58334"
   height="1000"
   width="1000">
  <defs
     id="defs2" />
  <sodipodi:namedview
     inkscape:window-maximized="1"
     inkscape:window-y="-8"
     inkscape:window-x="-8"
     inkscape:window-height="1017"
     inkscape:window-width="1920"
     units="px"
     showgrid="false"
     inkscape:document-rotation="0"
     inkscape:current-layer="layer1"
     inkscape:document-units="mm"
     inkscape:cy="483.38069"
     inkscape:cx="1128.0007"
     inkscape:zoom="0.35"
     inkscape:pageshadow="2"
     inkscape:pageopacity="0.0"
     borderopacity="1.0"
     bordercolor="#666666"
     pagecolor="#ffffff"
     id="base" />
  <metadata
     id="metadata5">
    <rdf:RDF>
      <cc:Work
         rdf:about="">
        <dc:format>image/svg+xml</dc:format>
        <dc:type
           rdf:resource="http://purl.org/dc/dcmitype/StillImage" />
        <dc:title></dc:title>
      </cc:Work>
    </rdf:RDF>
  </metadata>
  <g
     id="layer1"
     inkscape:groupmode="layer"
     inkscape:label="Ebene 1">
    <path
       id="path26"
       d="m 87.084032,248.59847 c -1.305332,-0.49121 -2.029128,-1.34243 -2.421314,-2.84758 -0.10141,-0.38917 -0.293262,-1.80926 -0.426342,-3.15574 -0.758561,-7.67443 -2.074696,-15.19875 -3.943371,-22.544 -2.240264,-8.80582 -4.277003,-15.26266 -6.977502,-22.11995 -1.642194,-4.16999 -5.547525,-13.40356 -6.363409,-15.04537 -0.517498,-1.04135 -0.351795,-0.96949 -2.892344,-1.25424 -6.792591,-0.76136 -13.36226,-4.24858 -19.053456,-10.11375 -6.650722,-6.854 -11.35004,-16.1757 -13.11388,-26.01303 -0.450035,-2.50992 -0.550108,-3.71161 -0.631551,-7.58332 -0.140111,-6.66096 0.28717,-10.24483 1.772629,-14.86808 1.329649,-4.13833 3.206077,-7.72352 5.586707,-10.67419 l 0.855779,-1.06071 0.10458,-4.43272 c 0.139375,-5.90715 0.442267,-8.60783 1.497794,-13.354696 3.667386,-16.492804 13.817499,-31.003579 28.28321,-40.434125 7.616737,-4.965546 16.447102,-8.393687 25.289336,-9.817887 2.760918,-0.444693 4.783538,-0.611907 8.221092,-0.679641 6.22872,-0.122729 11.35744,0.443799 17.01767,1.879793 10.26086,2.603161 17.64071,6.477731 26.91309,14.129924 2.11588,1.746173 2.86945,2.199565 4.79352,2.884051 8.42705,2.997939 14.24566,9.198461 16.58782,17.676611 0.59948,2.169968 0.74263,3.251996 0.81443,6.156104 l 0.0667,2.696962 1.14215,1.005129 c 4.62439,4.069668 11.40614,11.070575 15.76346,16.272855 4.676,5.58277 8.84062,10.99886 11.8419,15.40034 5.20467,7.63289 8.55126,13.13018 12.64279,20.76777 11.59634,21.64671 20.58856,46.59859 25.98595,72.10655 0.29881,1.41216 0.59313,2.78253 0.65405,3.04526 0.67369,2.90584 2.03279,10.79311 2.80592,16.28376 0.97631,6.93364 1.46057,11.83217 1.24787,12.62329 -0.30401,1.13089 -1.31949,2.26276 -2.34292,2.61147 -0.67045,0.22845 -1.95725,0.23628 -2.57574,0.0156 -1.10882,-0.3955 -2.03061,-1.34344 -2.30152,-2.36676 -0.17713,-0.66904 -0.57089,-3.32575 -1.06623,-7.19373 -0.9663,-7.54573 -1.85813,-13.01022 -3.22297,-19.74846 -4.39735,-21.70941 -10.59374,-40.91667 -19.65365,-60.92129 -4.50764,-9.95304 -11.7983,-22.94013 -17.74811,-31.61528 -2.0665,-3.01307 -5.05856,-7.17549 -6.28936,-8.74947 -1.90811,-2.44013 -7.39713,-8.95618 -9.40604,-11.16598 -10.90711,-11.99782 -22.20094,-21.121538 -34.92095,-28.210846 -7.58367,-4.22665 -12.96061,-6.098361 -20.00052,-6.96217 -1.71143,-0.210001 -8.85566,-0.291114 -10.95245,-0.124366 -3.05975,0.243339 -5.33339,0.636268 -8.6925,1.502226 -10.195726,2.628408 -18.460773,7.20623 -25.542028,14.147141 -5.153747,5.051601 -8.32557,9.356998 -11.332778,15.382975 -0.871426,1.74619 -1.066306,2.22899 -0.964723,2.39003 0.07001,0.11099 0.90085,0.52731 1.846313,0.92516 3.294641,1.3864 5.777778,2.80886 8.108109,4.64473 6.278262,4.94607 11.082761,11.48853 14.287651,19.45599 1.574699,3.91478 2.94365,9.04508 3.446057,12.91467 0.423345,3.26054 0.486519,7.52095 0.16822,11.34512 -0.873785,10.49811 -5.971388,19.94959 -13.239298,24.54704 -0.358412,0.22672 -1.375981,0.7884 -2.261267,1.24817 -0.885278,0.45978 -1.662348,0.92333 -1.726814,1.03013 -0.13942,0.23095 -0.12982,0.2561 2.021954,5.29926 8.66793,20.31524 13.588509,38.60864 15.161766,56.36733 0.226986,2.56227 0.194407,3.33394 -0.177242,4.19786 -0.733268,1.70452 -3.021202,2.73132 -4.688215,2.10402 z M 68.845454,173.97386 c 5.004787,-0.85496 9.557361,-3.99517 12.77795,-8.81376 2.131763,-3.18952 3.959259,-8.18861 4.478598,-12.25111 0.264732,-2.07091 0.356865,-6.50416 0.176491,-8.49265 -1.359741,-14.99048 -10.770892,-28.46158 -22.511059,-32.2223 -2.307886,-0.73928 -3.3492,-0.89274 -6.096776,-0.89849 -2.20145,-0.005 -2.659342,0.0287 -3.74753,0.27232 -3.665734,0.82076 -6.709878,2.51834 -9.448643,5.26906 -1.588942,1.59589 -2.465852,2.73723 -3.539858,4.60731 -1.64957,2.87228 -2.965344,6.72532 -3.615253,10.58675 -0.479924,2.85142 -0.425696,9.06701 0.10464,11.99449 1.335958,7.37454 4.234071,13.97009 8.442536,19.21354 1.221185,1.52152 3.710962,4.06159 5.17617,5.28073 3.346841,2.78475 7.49213,4.74266 11.456895,5.41134 1.683652,0.28396 4.810636,0.30503 6.345839,0.0427 z m -6.039641,-7.80088 c -1.814147,-0.28896 -3.472401,-0.86749 -5.553137,-1.93743 -3.333116,-1.71392 -6.44721,-4.61317 -8.894936,-8.28129 -0.917602,-1.37511 -2.485263,-4.49474 -3.090582,-6.15025 -1.341585,-3.66915 -1.741643,-5.81998 -1.83256,-9.85234 -0.09941,-4.40963 0.169295,-6.59927 1.171142,-9.5431 2.037046,-5.98564 6.067367,-9.8319 11.532217,-11.00551 1.263777,-0.27141 3.598946,-0.27399 4.980899,-0.005 3.913527,0.76028 7.574859,2.86875 10.804898,6.22229 4.222436,4.38389 6.835558,10.06949 7.853345,17.08721 0.252728,1.74262 0.28551,5.79147 0.06032,7.45525 -0.927893,6.85665 -4.254046,12.25659 -9.030345,14.66058 -0.842198,0.42389 -2.569494,0.98291 -3.5682,1.15482 -1.233467,0.21232 -3.656149,0.31904 -4.433099,0.1953 z m 3.191947,-7.87503 c 0.704655,-0.0491 1.315541,-0.12371 1.357525,-0.1657 0.08797,-0.088 -0.383435,-0.97919 -2.794435,-5.28297 -0.956694,-1.70773 -1.933631,-3.45429 -2.170975,-3.88122 -0.563246,-1.01315 -0.773727,-1.02314 -1.25752,-0.0597 -0.1979,0.39409 -0.50877,1.06584 -0.690812,1.49278 -0.437151,1.02519 -0.555838,0.82448 -0.56495,-0.95538 -0.0068,-1.2622 -0.119198,-2.31199 -0.263824,-2.45661 -0.133921,-0.13392 -5.030597,1.826 -6.922267,2.77068 -0.777415,0.38823 -0.797014,0.40915 -0.683375,0.72949 0.376419,1.06106 2.981285,4.09827 4.566366,5.32427 2.97644,2.30216 4.872136,2.80189 9.424267,2.48437 z m 2.850819,-1.34706 c 0.840778,-0.60279 2.073876,-1.93865 2.808069,-3.04207 1.131201,-1.70008 1.936019,-3.85412 2.367845,-6.3374 0.180555,-1.0383 0.157794,-1.17691 -0.210226,-1.28024 -0.796729,-0.2237 -7.41563,-0.51834 -7.528849,-0.33514 -0.08933,0.14454 0.171172,0.48113 1.591737,2.05664 1.484783,1.64674 1.817302,2.04813 1.751356,2.11407 -0.0323,0.0324 -0.882071,-0.47603 -1.888267,-1.12974 -1.991194,-1.29365 -2.774078,-1.73152 -2.88946,-1.61613 -0.04094,0.0409 -0.07452,0.17619 -0.07452,0.30048 0,0.16352 2.485826,7.91732 3.044669,9.49698 0.08941,0.25272 0.477768,0.16677 1.027628,-0.22745 z m -15.125875,-9.79387 c 2.104691,-2.16767 3.17171,-3.43276 3.17171,-3.7605 0,-0.2072 -0.863223,-0.60342 -2.606151,-1.19624 -0.70129,-0.23853 -1.31781,-0.47097 -1.370039,-0.51655 -0.05221,-0.0456 0.58871,-0.11943 1.424305,-0.16411 1.617067,-0.0864 2.074192,-0.15783 2.074192,-0.32389 0,-0.35648 -5.872915,-6.43893 -6.2171,-6.43893 -0.256658,0 -0.516207,0.72164 -0.730174,2.03017 -0.224484,1.37285 -0.189343,5.6646 0.05747,7.01459 0.34749,1.90094 1.648729,5.52477 1.983824,5.52477 0.05814,0 1.053536,-0.9762 2.211997,-2.16931 z m 20.48794,-2.84039 c 0,-0.45007 -0.729122,-3.90114 -1.086205,-5.14121 -1.198679,-4.16275 -4.017829,-8.11941 -7.394334,-10.37791 -0.598889,-0.4006 -1.135497,-0.72836 -1.192445,-0.72836 -0.18244,0 -0.227586,0.36822 -0.358705,2.92585 -0.07069,1.37932 -0.179713,3.36771 -0.242234,4.41862 -0.142485,2.39487 -0.147848,4.44445 -0.01187,4.52849 0.18428,0.11388 1.371257,-0.25956 2.794435,-0.87919 0.76303,-0.33223 1.429473,-0.60403 1.480997,-0.60403 0.05153,0 -0.338348,0.44335 -0.866371,0.98523 -1.631361,1.67417 -1.889198,2.00439 -1.703813,2.18223 0.232439,0.22297 3.189213,1.36096 5.415843,2.08442 1.050921,0.34147 2.045106,0.66561 2.209307,0.72032 0.562712,0.1875 0.955386,0.14046 0.955386,-0.11446 z m -15.894306,-6.14287 c 0.106541,-0.12837 0.01863,-0.5388 -0.390067,-1.8212 -0.954613,-2.99534 -0.863922,-3.16407 0.469084,-0.87269 0.475545,0.81743 1.025742,1.67434 1.222673,1.90422 l 0.358052,0.41797 0.352395,-0.77816 c 0.572237,-1.26363 2.815641,-7.87011 3.065665,-9.02792 0.07287,-0.33745 0.04274,-0.38954 -0.3269,-0.56493 -0.736318,-0.34941 -1.67137,-0.48847 -3.306698,-0.49178 -1.33251,-0.002 -1.776768,0.0442 -2.560817,0.27074 -1.19937,0.34639 -2.543088,1.04331 -3.489934,1.81004 -0.823538,0.66688 -2.111225,2.30622 -2.698028,3.43482 -0.385598,0.74164 -0.385936,0.74387 -0.147908,0.9716 0.131217,0.12554 1.393988,1.0215 2.806154,1.99102 1.412166,0.96952 2.794608,1.94545 3.072088,2.16874 0.544323,0.43803 1.08643,0.75133 1.302057,0.75249 0.07407,0 0.19654,-0.0738 0.272184,-0.16496 z m 6.302676,-13.47083 c -0.03808,-0.0953 -0.0664,-0.067 -0.07211,0.0722 -0.0053,0.12588 0.02306,0.19643 0.06272,0.15674 0.03966,-0.0397 0.04394,-0.14269 0.0095,-0.2289 z M 49.908206,104.612 c 0.853864,-0.2369 2.479501,-0.58284 3.612505,-0.76876 1.415148,-0.23222 2.131605,-0.40282 2.288708,-0.54499 0.125771,-0.11383 0.427882,-0.673 0.671348,-1.24261 1.943757,-4.54748 5.646659,-10.799853 8.605461,-14.530361 8.37227,-10.555911 19.656363,-18.043234 32.84585,-21.794189 3.719032,-1.05766 7.868702,-1.870922 10.970732,-2.150069 0.78818,-0.07091 2.87588,-0.180833 4.63932,-0.24424 4.88928,-0.1758 8.33733,0.05356 13.33373,0.886945 l 1.73162,0.288831 0.71653,-0.393891 c 1.40919,-0.774637 3.84138,-1.945447 4.98968,-2.401919 0.64249,-0.25541 1.30836,-0.575505 1.4797,-0.711334 l 0.31154,-0.246952 -0.55178,-0.452145 c -0.91082,-0.746354 -3.55659,-2.273872 -6.40827,-3.699785 -4.93048,-2.465371 -8.89783,-3.821221 -14.33066,-4.89754 -2.66852,-0.528669 -4.37016,-0.740728 -7.34448,-0.915281 -5.23673,-0.307324 -10.250288,0.150868 -15.704012,1.435198 -16.895657,3.978872 -31.63839,16.118436 -38.979202,32.096506 -1.487179,3.237026 -2.683943,6.550537 -3.348997,9.272467 -1.18772,4.861129 -2.07631,11.269309 -1.589355,11.461899 0.185069,0.0732 0.171953,0.076 2.060032,-0.44778 z M 160.39873,80.284014 c -0.0971,-0.724149 -1.62875,-3.740424 -2.45843,-4.841503 -0.96951,-1.286628 -3.42501,-3.636091 -4.7361,-4.531578 -2.63556,-1.8001 -5.33813,-2.733289 -8.81179,-3.042672 -1.58499,-0.14117 -3.52201,-0.0166 -4.03826,0.259677 l -0.26884,0.143882 0.34598,0.275873 c 0.19029,0.151724 1.53079,0.931656 2.97891,1.733184 5.83362,3.228883 12.83148,7.601143 15.63589,9.7693 0.51771,0.400261 1.04875,0.72774 1.18009,0.72774 0.21096,0 0.23107,-0.05754 0.17255,-0.493903 z m -12.07204,55.488736 c -3.02337,-0.62791 -5.14533,-2.02477 -6.86048,-4.51618 -1.25672,-1.82549 -1.86581,-3.61519 -2.01028,-5.90694 -0.0745,-1.18246 -0.067,-1.23786 0.20967,-1.53462 0.39939,-0.4284 1.17522,-0.80086 4.65919,-2.23677 3.34894,-1.38027 5.25065,-2.20164 10.13762,-4.37855 4.08385,-1.81917 5.12657,-2.19759 5.80075,-2.10518 1.25916,0.17258 1.42596,0.47347 1.53225,2.76403 0.0427,0.91955 0.13638,2.31679 0.20825,3.10498 0.1596,1.75076 0.0717,4.34582 -0.18814,5.55314 -0.55018,2.55657 -1.46215,4.35701 -3.04659,6.01465 -1.37048,1.43382 -3.16987,2.45312 -5.32161,3.01455 -1.48839,0.38836 -3.84128,0.49262 -5.12063,0.22689 z m 4.28467,-2.74681 c 1.40501,-0.25007 2.54114,-0.86534 3.64239,-1.97252 0.49261,-0.49527 1.07651,-1.20753 1.29756,-1.58278 0.49105,-0.83368 1.03589,-2.38731 1.2034,-3.43167 0.22906,-1.42796 0.11904,-7.33185 -0.14148,-7.59237 -0.0424,-0.0424 -1.00715,0.32712 -2.14383,0.82123 -6.26053,2.7214 -8.07327,3.49549 -10.80519,4.61406 l -3.0062,1.23089 -0.0798,0.5802 c -0.15322,1.11397 0.22498,2.321 1.19898,3.82667 0.6194,0.95749 1.86267,2.26393 2.64414,2.77848 1.13535,0.74759 1.74176,0.90062 3.56274,0.89918 0.91956,-10e-4 2.10184,-0.0778 2.62729,-0.17137 z m -30.96171,-12.12717 c -0.94143,-0.16905 -1.99224,-0.54258 -3.21375,-1.14241 -1.11925,-0.5496 -2.18861,-1.36549 -2.18861,-1.66983 0,-0.25211 4.84734,-3.74474 6.17837,-4.45167 0.87904,-0.46686 2.2832,-0.36055 3.37539,0.25559 1.15919,0.6539 5.30828,3.21077 5.48751,3.38165 0.15038,0.14339 0.12679,0.21415 -0.17913,0.53723 -0.71034,0.75011 -2.46477,1.88493 -3.65312,2.36292 -1.71502,0.68983 -4.24686,1.00661 -5.80666,0.72652 z m -6.66073,-3.90604 c -1.9886,-2.50409 -2.6934,-6.69821 -1.65032,-9.82081 0.5207,-1.55881 1.74924,-3.70376 2.12137,-3.70376 0.31971,0 3.87785,4.38107 4.51003,5.55313 0.7064,1.30967 0.51167,2.14448 -1.03072,4.41863 -1.32696,1.95648 -3.07474,4.23949 -3.24559,4.23949 -0.0877,0 -0.40485,-0.30901 -0.70477,-0.68668 z m 16.0835,-0.9485 c -0.75121,-0.79004 -2.59172,-3.12305 -3.45457,-4.37899 -0.72834,-1.06017 -0.75549,-1.63087 -0.13902,-2.92183 0.44951,-0.94133 3.56253,-5.50762 3.75594,-5.50939 0.42631,-0.004 1.89658,2.74423 2.32956,4.3542 0.35842,1.33273 0.45453,3.86871 0.1894,4.9972 -0.39212,1.66903 -1.42712,3.97636 -1.84535,4.11385 -0.0893,0.0294 -0.46546,-0.26542 -0.83596,-0.65504 z m 15.17726,-8.63695 c -2.22812,-0.58379 -4.1991,-2.14002 -5.14533,-4.06259 -0.56289,-1.14366 -0.98532,-2.89715 -0.75376,-3.12873 0.16429,-0.16427 3.37145,0.15598 4.49147,0.4485 1.69637,0.44306 2.0145,1.0056 2.69595,4.76734 0.31763,1.75334 0.31096,1.95499 -0.0696,2.09968 -0.16848,0.064 -0.31627,0.11349 -0.32841,0.10987 -0.0122,-0.004 -0.41279,-0.10894 -0.89034,-0.23407 z m 2.39089,0.15968 c -0.20947,-0.0819 -0.18716,-0.72156 0.0917,-2.62933 0.52655,-3.60266 0.75286,-3.93665 3.06516,-4.52344 1.28431,-0.32591 3.61991,-0.76755 4.05924,-0.76755 0.24302,0 0.27767,0.058 0.27767,0.46462 0,0.69027 -0.54656,2.66598 -0.97145,3.51161 -0.53165,1.05807 -1.92166,2.39627 -3.14862,3.03125 -1.24382,0.6437 -2.90938,1.09437 -3.37368,0.91284 z m -25.96536,-0.56341 c -0.70875,-0.19054 -5.63683,-3.1393 -6.45394,-3.86176 -0.29973,-0.26502 -0.11225,-0.52457 0.89588,-1.24027 1.16988,-0.8305 2.58964,-1.5001 3.66818,-1.72999 1.19816,-0.25539 4.04751,-0.25545 5.22285,-1.1e-4 1.40085,0.30433 3.70187,1.48388 4.45032,2.28131 l 0.29853,0.31808 -0.34545,0.25911 c -1.41913,1.06442 -3.41157,2.44048 -4.31197,2.97803 -1.72486,1.02977 -2.48034,1.24941 -3.4244,0.9956 z m 17.61874,-7.77591 c -0.13257,-0.34545 0.28979,-1.97502 0.77352,-2.984539 1.02527,-2.139658 2.91575,-3.697313 5.28372,-4.353517 1.34661,-0.373159 1.35104,-0.360561 0.88366,2.506618 -0.34971,2.145225 -0.55611,2.846388 -0.9896,3.361568 -0.46055,0.54733 -1.04966,0.75595 -3.30709,1.17112 -1.11661,0.20536 -2.1506,0.40283 -2.29778,0.43882 -0.18446,0.0451 -0.29208,0.002 -0.34643,-0.14007 z m 12.91453,-0.49054 c -2.34793,-0.35142 -2.92441,-0.53346 -3.39823,-1.07312 -0.58608,-0.66751 -0.83412,-1.461247 -1.31823,-4.218326 -0.3106,-1.768941 -0.30947,-1.800303 0.0653,-1.800303 0.68505,0 2.09073,0.410447 3.1584,0.922236 1.9338,0.926954 3.41914,2.662888 4.04981,4.733043 0.13716,0.45028 0.2494,1.02798 0.2494,1.28379 0,0.46019 -0.005,0.46497 -0.44783,0.45189 -0.24631,-0.007 -1.30768,-0.14191 -2.3586,-0.29921 z M 25.725139,41.263617 c 3e-5,-0.735657 0.0777,-1.241617 0.293277,-1.910757 0.16128,-0.500581 0.431015,-1.420677 0.599408,-2.044655 0.371791,-1.37768 1.50055,-3.694061 2.356855,-4.836605 0.68191,-0.909864 2.343687,-2.632608 2.873956,-2.979392 0.320913,-0.209873 0.339332,-0.20967 0.577923,0.006 0.43314,0.39199 3.222167,3.586626 6.171046,7.068515 l 2.861605,3.378849 -0.157313,0.825642 c -0.268383,1.408538 0.125794,1.275082 -4.019421,1.360875 -1.988639,0.04116 -5.402584,0.08767 -7.586546,0.103363 l -3.970835,0.02855 z M 93.074531,26.136391 c -0.109388,-0.131803 -0.129572,-0.506494 -0.07544,-1.400696 0.04064,-0.671423 0.190764,-3.155409 0.333624,-5.519971 0.142853,-2.364563 0.27793,-4.320887 0.300165,-4.347381 0.146782,-0.174891 3.259606,0.479286 4.504371,0.946627 0.673328,0.252789 0.696358,0.27552 0.627558,0.619472 -0.0894,0.447105 -2.716541,5.748684 -3.720904,7.508866 -1.162736,2.037715 -1.648947,2.579169 -1.969372,2.193083 z M 59.937844,21.378195 c -0.533859,-0.232627 -1.250579,-1.07354 -4.445725,-5.216065 -3.831535,-4.967603 -3.558412,-4.563646 -3.378752,-4.997388 0.392847,-0.948415 2.719054,-2.5922835 5.013434,-3.5428545 l 1.499235,-0.621139 2.774507,-0.087746 c 2.494314,-0.078882 2.781988,-0.068283 2.848497,0.1050527 0.127289,0.331701 -0.277217,10.8176828 -0.503361,13.0487678 l -0.07414,0.731668 -1.402777,0.372985 c -1.553133,0.412956 -1.806109,0.435394 -2.330894,0.206719 z"
       style="fill:#000000;stroke-width:0.119423" />
  </g>
</svg>
